<?xml version="1.0" standalone="no"?>
<!DOCTYPE svg PUBLIC "-//W3C//DTD SVG 20010904//EN"
 "http://www.w3.org/TR/2001/REC-SVG-20010904/DTD/svg10.dtd">
<svg version="1.0" xmlns="http://www.w3.org/2000/svg"
 width="3519.000000pt" height="3000.000000pt" viewBox="0 0 3519.000000 3000.000000"
 preserveAspectRatio="xMidYMid meet">
<metadata>
Created by potrace 1.16, written by Peter Selinger 2001-2019
</metadata>
<g transform="translate(0.000000,3000.000000) scale(0.100000,-0.100000)"
fill="#000000" stroke="none">
<path d="M16663 24660 c-29 -4 -61 -11 -70 -15 -16 -7 -15 -9 7 -15 34 -11
610 -11 635 0 18 7 18 9 -10 20 -36 15 -482 23 -562 10z"/>
<path d="M17270 24640 c0 -5 5 -10 10 -10 6 0 10 5 10 10 0 6 -4 10 -10 10 -5
0 -10 -4 -10 -10z"/>
<path d="M16405 24570 c-100 -6 -134 -15 -118 -31 11 -11 240 -29 369 -29 63
0 104 -4 104 -10 0 -5 -6 -10 -12 -10 -7 0 -62 -5 -123 -11 -60 -6 -190 -12
-287 -13 -98 -1 -181 -5 -185 -10 -13 -12 20 -26 65 -26 24 0 50 -6 58 -15 13
-12 10 -15 -23 -25 -21 -7 -73 -10 -116 -8 -42 1 -77 0 -77 -4 0 -5 -11 -8
-25 -8 -16 0 -25 -6 -25 -15 0 -9 9 -15 25 -15 20 0 25 -5 25 -25 0 -23 -18
-32 -53 -26 -40 7 -67 7 -67 0 0 -5 -9 -9 -20 -9 -29 0 -24 -25 8 -40 15 -7
30 -13 35 -12 18 5 5 -26 -17 -37 -19 -10 -31 -11 -57 -1 -54 19 -123 -18 -71
-37 34 -13 44 -30 30 -52 -18 -29 -38 -30 -78 -3 -34 23 -34 23 -42 2 -8 -23
6 -70 22 -70 7 0 8 -6 0 -19 -5 -11 -10 -33 -10 -49 0 -32 -12 -46 -47 -55
-22 -5 -23 -2 -23 49 0 30 -4 54 -10 54 -5 0 -10 15 -10 34 0 20 -6 36 -14 39
-11 5 -16 -12 -21 -81 -4 -48 -12 -92 -17 -99 -13 -16 -1 -33 22 -33 27 0 35
-41 16 -79 -9 -17 -23 -31 -31 -31 -7 0 -20 -7 -28 -15 -13 -12 -16 -4 -22 70
-4 47 -11 83 -16 79 -5 -3 -10 5 -10 18 -1 18 -2 19 -6 5 -3 -12 -10 -16 -20
-13 -14 6 -15 -5 -9 -91 5 -70 12 -103 24 -117 16 -18 17 -17 23 10 6 26 7 25
8 -11 1 -58 -16 -120 -45 -167 -24 -37 -28 -40 -39 -25 -7 10 -14 70 -18 153
-3 75 -10 141 -15 146 -19 19 -42 -4 -42 -44 0 -23 -4 -37 -10 -33 -6 4 -10
-12 -9 -42 1 -82 15 -167 27 -171 7 -2 12 -14 12 -27 0 -12 7 -26 16 -29 15
-6 16 -28 8 -244 -5 -130 -9 -360 -9 -509 0 -168 -4 -273 -10 -272 -14 1 -23
-30 -24 -78 -1 -24 -5 -43 -11 -43 -6 0 -10 -39 -10 -96 l0 -95 -95 7 -95 7 0
-52 0 -51 -55 0 -55 0 0 -34 c0 -32 -2 -34 -46 -40 -76 -10 -74 -11 -74 44 l0
50 -122 -4 c-68 -2 -150 -9 -183 -15 -88 -16 -206 -13 -288 6 l-72 17 45 7
c25 4 122 13 216 19 94 6 179 13 189 14 25 4 32 25 8 25 -10 -1 -29 2 -43 4
-93 19 -327 23 -407 8 -66 -13 -618 -15 -698 -2 -66 10 -319 7 -375 -4 -19 -4
-39 -8 -45 -9 -5 -1 -12 -5 -15 -10 -5 -10 9 -12 93 -17 26 -1 47 -6 47 -11 0
-4 51 -8 113 -9 61 0 121 -4 132 -8 19 -8 19 -8 -4 -20 -37 -20 -126 -24 -239
-12 -169 18 -322 25 -322 14 0 -6 -22 -13 -50 -17 -50 -7 -69 -25 -27 -27 12
0 31 -3 42 -5 15 -4 140 -19 188 -23 18 -2 4 -18 -26 -29 -26 -9 -58 -10 -133
-2 -55 6 -149 8 -211 4 l-113 -6 0 -37 0 -36 -103 -3 c-56 -1 -156 -4 -222 -7
l-120 -4 -3 -41 c-2 -22 -6 -40 -10 -41 -71 -9 -213 -13 -352 -12 -96 1 -177
-2 -180 -6 -3 -5 -32 -4 -65 2 -136 25 -1667 9 -1693 -18 -3 -3 -2 -8 2 -12 4
-5 401 -8 882 -8 692 0 874 -3 875 -12 1 -7 2 -18 3 -25 1 -17 -51 -27 -179
-33 -60 -3 -126 -8 -146 -10 -71 -9 -786 -6 -854 4 -147 21 -677 30 -915 16
-178 -11 -358 -12 -540 -4 -95 4 -115 7 -118 21 -2 8 5 19 15 23 10 4 199 11
420 15 361 6 427 10 412 24 -12 12 -216 24 -454 27 -148 1 -282 3 -297 4 -16
1 -39 3 -53 4 -22 1 -25 6 -25 37 0 44 -17 62 -50 54 -21 -5 -25 -12 -28 -48
-5 -62 -62 -87 -62 -26 0 15 6 24 16 24 11 0 14 5 10 16 -3 9 -6 40 -6 69 0
40 -4 54 -16 59 -20 8 -64 -19 -64 -38 0 -9 -7 -12 -20 -9 -22 6 -39 51 -22
62 6 3 13 17 16 31 11 46 -19 64 -74 45 -29 -10 -39 -10 -55 1 -18 13 -18 14
3 33 22 18 31 48 12 36 -5 -3 -10 -1 -10 4 0 16 -32 13 -69 -5 -39 -20 -140
-12 -184 14 -60 34 -28 49 106 51 70 1 89 4 94 17 3 9 0 20 -8 25 -23 16 -179
7 -237 -13 -39 -14 -81 -18 -160 -18 -59 0 -130 0 -158 -1 -30 -1 -72 6 -100
17 -39 15 -76 19 -176 19 -87 0 -131 -4 -139 -12 -7 -7 -9 -16 -5 -20 4 -4 70
-10 146 -13 155 -6 185 -17 129 -46 -39 -20 -148 -28 -188 -12 -14 5 -64 12
-111 15 -77 5 -87 3 -104 -16 -18 -20 -18 -21 8 -31 15 -5 54 -10 87 -10 96 0
129 -29 64 -56 -45 -18 -115 -18 -143 1 -30 22 -85 27 -107 11 -27 -19 -12
-42 32 -50 21 -3 45 -11 53 -16 13 -9 11 -14 -13 -35 -32 -28 -75 -33 -83 -10
-11 29 -44 38 -65 19 -25 -23 -24 -30 9 -46 16 -8 28 -23 30 -37 5 -34 -17
-71 -43 -71 -11 0 -26 -5 -32 -11 -8 -8 -13 13 -18 76 -5 55 -11 82 -16 74 -5
-9 -9 -10 -9 -3 0 7 -7 15 -16 18 -15 6 -16 -3 -10 -90 5 -59 13 -102 21 -110
10 -11 14 -11 18 -1 13 37 15 -24 8 -253 -4 -140 -6 -279 -3 -307 3 -45 0 -60
-24 -97 -16 -25 -36 -47 -45 -49 -25 -7 -29 46 -29 368 0 155 -3 315 -6 356
-6 69 -8 74 -30 74 -22 0 -24 -4 -24 -48 0 -30 -4 -46 -10 -42 -7 4 -10 -105
-10 -320 0 -277 2 -329 15 -341 21 -21 20 -84 -1 -84 -28 0 -11 -35 19 -38 20
-3 27 -9 27 -25 0 -31 -34 -83 -58 -89 -22 -6 -24 5 -38 159 -6 63 -9 72 -29
75 -21 4 -23 0 -29 -55 -3 -33 -3 -104 1 -158 6 -95 7 -99 30 -99 15 0 23 -6
23 -17 0 -30 -23 -82 -39 -86 -9 -3 -23 -8 -31 -11 -13 -6 -18 10 -28 91 -7
54 -12 111 -12 126 0 24 -4 28 -22 25 -19 -2 -24 -10 -26 -46 -2 -23 -7 -40
-13 -37 -11 7 -11 -33 -3 -127 4 -37 10 -65 14 -63 4 3 10 -4 13 -15 3 -12 14
-20 27 -20 21 0 22 -3 16 -42 -4 -24 -16 -60 -27 -82 -53 -102 -79 -81 -79 65
0 55 -4 101 -10 104 -6 3 -10 22 -10 41 0 24 -5 34 -15 34 -10 0 -15 -10 -15
-34 0 -19 -7 -41 -15 -50 -11 -10 -15 -37 -15 -96 0 -67 3 -84 20 -102 14 -16
20 -36 20 -70 0 -38 3 -48 16 -48 14 0 16 -9 12 -51 -4 -41 -12 -57 -44 -90
-27 -28 -40 -35 -46 -26 -4 6 -8 76 -8 155 0 138 -1 142 -19 130 -15 -9 -23
-9 -34 0 -12 10 -15 1 -21 -62 -4 -41 -4 -105 0 -141 6 -56 12 -73 36 -97 32
-33 34 -64 3 -61 -11 2 -26 -1 -34 -6 -21 -13 3 -41 35 -41 18 0 24 -5 24 -23
0 -34 -23 -77 -40 -77 -9 0 -26 -7 -38 -16 l-22 -15 0 136 c0 88 -4 134 -10
130 -5 -3 -10 -1 -10 4 0 6 -4 11 -10 11 -5 0 -10 -10 -10 -21 0 -17 -3 -19
-14 -10 -11 9 -14 0 -20 -50 -9 -89 -8 -131 4 -124 6 4 10 -15 10 -49 0 -45 4
-58 22 -70 12 -8 26 -12 31 -9 7 4 8 -12 4 -45 -5 -43 -12 -56 -49 -90 -51
-48 -58 -42 -58 44 0 34 -3 94 -6 135 -6 69 -8 74 -30 75 -22 2 -24 -2 -24
-42 0 -24 -4 -44 -10 -44 -6 0 -10 -35 -10 -86 0 -85 0 -86 35 -120 31 -30 35
-39 35 -86 0 -66 -17 -128 -34 -128 -7 0 -25 -9 -40 -21 l-26 -20 0 141 c0
123 -2 141 -14 131 -11 -9 -20 -9 -34 -2 -18 9 -20 5 -26 -57 -9 -97 -8 -134
4 -127 6 4 10 -10 10 -34 0 -52 15 -91 36 -91 14 0 15 -8 9 -57 -5 -43 -16
-72 -43 -112 -56 -82 -62 -93 -62 -127 0 -54 -18 -90 -56 -107 -19 -10 -37
-17 -39 -17 -3 0 -5 61 -5 136 0 117 -2 135 -14 125 -11 -9 -20 -9 -34 -2 -18
10 -20 5 -26 -64 -7 -81 2 -205 15 -205 5 0 9 -7 9 -16 0 -9 9 -18 20 -21 30
-8 28 -87 -5 -146 -27 -48 -52 -74 -61 -64 -5 5 -20 210 -23 310 -1 10 -9 17
-21 17 -17 0 -20 -7 -21 -52 0 -29 -3 -47 -6 -40 -14 34 -23 3 -23 -78 0 -77
3 -94 20 -112 14 -16 20 -36 20 -70 0 -36 4 -48 15 -48 10 0 15 -10 15 -34 0
-47 -12 -75 -51 -114 -24 -25 -34 -30 -40 -20 -5 7 -9 78 -9 157 0 123 -2 142
-14 132 -11 -9 -20 -9 -34 -2 -18 10 -20 5 -26 -64 -12 -130 5 -224 44 -237 5
-1 12 -18 16 -35 6 -29 4 -33 -15 -33 -12 0 -21 -6 -21 -15 0 -8 9 -15 20 -15
14 0 20 -7 20 -24 0 -49 -19 -81 -60 -98 l-40 -17 0 135 c0 130 -1 134 -19
122 -15 -9 -23 -9 -34 0 -12 10 -15 1 -21 -62 -8 -83 2 -208 15 -200 5 3 9 -2
9 -10 0 -9 9 -21 20 -28 16 -10 20 -24 20 -71 0 -72 -26 -127 -69 -145 -28
-12 -31 -18 -31 -55 0 -55 -19 -112 -53 -165 -41 -63 -57 -45 -57 63 0 107
-11 206 -21 199 -5 -3 -17 0 -27 5 -18 10 -20 5 -26 -64 -9 -103 2 -204 26
-224 13 -11 18 -29 18 -63 0 -27 5 -48 10 -48 6 0 10 -19 10 -43 0 -35 -8 -54
-39 -96 -37 -49 -40 -51 -50 -32 -6 11 -11 79 -11 162 0 122 -2 140 -14 130
-11 -9 -20 -9 -34 -2 -18 10 -20 5 -26 -64 -9 -101 2 -203 26 -227 12 -12 18
-33 18 -63 0 -25 5 -45 10 -45 11 0 12 -52 2 -86 -4 -12 -23 -40 -43 -63 -29
-32 -38 -38 -43 -25 -3 8 -6 81 -6 160 0 140 -1 144 -19 132 -15 -9 -23 -9
-34 0 -26 22 -34 -157 -11 -265 2 -12 14 -25 25 -28 19 -6 21 -12 16 -56 -4
-32 -2 -49 5 -49 7 0 9 -18 6 -50 -5 -44 -11 -55 -49 -90 l-44 -39 -3 155 c-1
97 -6 153 -12 149 -6 -4 -10 14 -10 44 0 28 -4 51 -10 51 -5 0 -10 -23 -10
-51 0 -39 -3 -50 -14 -46 -18 7 -29 -112 -20 -213 7 -68 9 -74 36 -84 27 -10
28 -13 28 -76 0 -84 -16 -139 -46 -163 -13 -10 -31 -25 -39 -33 -13 -14 -15 2
-15 141 0 102 -3 154 -10 150 -6 -4 -10 12 -10 39 0 25 -4 46 -10 46 -5 0 -10
-20 -10 -44 0 -43 -14 -70 -23 -44 -2 7 -7 -21 -11 -63 -8 -87 3 -227 15 -207
6 9 9 6 9 -9 0 -13 3 -22 8 -22 29 5 32 -4 32 -93 0 -85 -3 -98 -32 -153 -17
-33 -38 -65 -45 -70 -9 -7 -18 -43 -24 -95 -15 -133 -26 -166 -65 -189 -37
-22 -39 -31 -49 -176 -7 -106 -15 -136 -61 -230 -30 -61 -36 -85 -44 -184 -11
-135 -42 -247 -71 -256 -28 -9 -39 -45 -39 -129 0 -78 -24 -259 -40 -301 -5
-14 -21 -30 -35 -37 -14 -6 -28 -21 -31 -32 -3 -12 -3 -147 -1 -301 4 -300 14
-371 54 -389 20 -10 43 -74 43 -123 0 -25 -1 -26 -13 -8 -8 10 -16 14 -19 9
-3 -5 -9 -58 -13 -117 l-7 -108 24 11 c18 8 27 25 36 63 7 29 12 60 12 70 0
23 12 21 37 -5 39 -43 40 -91 2 -101 -22 -6 -26 -37 -4 -37 11 0 15 -12 15
-50 0 -43 3 -50 20 -50 17 0 20 7 20 43 0 24 6 52 14 62 12 17 17 18 41 7 36
-17 32 -56 -7 -60 -19 -2 -28 -9 -28 -21 0 -26 74 -37 105 -17 18 12 27 12 46
2 41 -20 36 -43 -13 -56 -57 -16 -61 -19 -43 -36 15 -16 104 -22 125 -9 17 10
70 -5 70 -21 0 -8 -7 -14 -15 -14 -8 0 -15 -4 -15 -10 0 -5 -13 -10 -29 -10
-33 0 -44 -10 -32 -28 9 -15 86 -17 189 -7 50 5 81 4 102 -5 64 -27 19 -50
-97 -50 -61 0 -83 -7 -83 -26 0 -21 41 -27 143 -21 90 5 120 9 183 26 58 16
200 4 304 -26 51 -15 53 -16 30 -25 -14 -6 -123 -14 -243 -18 -201 -7 -255
-16 -235 -36 24 -23 350 -32 509 -14 41 5 121 11 179 14 58 3 130 10 160 17
69 15 233 7 256 -12 10 -8 20 -13 23 -13 3 1 17 -3 31 -10 56 -25 430 -4 430
24 0 18 -45 23 -255 29 -178 5 -220 9 -220 20 0 63 247 89 373 39 52 -20 88
-23 257 -23 146 0 246 6 330 19 11 2 25 4 30 5 6 1 1 7 -10 13 -13 8 -102 13
-270 15 -350 5 -376 10 -294 58 28 16 57 20 164 23 73 2 154 -1 185 -7 159
-33 468 -37 498 -7 16 17 -32 24 -199 31 -136 6 -179 10 -183 21 -9 23 35 37
134 42 62 3 122 -1 175 -12 96 -18 450 -16 500 4 53 21 6 30 -172 36 -163 5
-283 19 -283 34 0 4 25 15 56 25 54 17 156 17 269 1 164 -23 366 -23 449 1 13
4 15 8 7 16 -7 7 -82 13 -205 17 -107 3 -198 8 -201 12 -17 17 8 37 60 48 63
13 208 8 270 -9 39 -10 375 -9 438 2 64 12 43 32 -36 36 -28 2 -124 6 -212 10
-150 6 -160 7 -160 26 0 14 10 22 35 28 40 9 242 11 280 2 50 -12 366 -16 395
-5 50 19 14 31 -111 36 -160 6 -244 14 -244 22 0 4 27 16 59 26 53 17 74 18
178 10 172 -13 424 -11 448 3 19 11 19 12 -8 22 -16 6 -75 11 -131 11 -143 0
-226 10 -226 26 0 8 12 16 28 20 15 3 41 9 57 14 32 8 180 5 230 -5 43 -8 255
-6 287 2 15 5 28 13 28 18 0 9 -180 32 -273 34 -54 1 -43 23 19 39 32 8 75 11
124 6 41 -3 111 -9 155 -12 88 -8 206 6 212 24 5 15 -22 21 -129 29 -74 6 -88
10 -88 25 0 14 13 18 71 24 39 3 74 4 77 2 8 -5 126 -19 157 -19 11 0 53 -4
93 -8 46 -5 81 -5 92 1 16 9 18 2 25 -81 7 -83 9 -89 24 -75 11 10 21 12 34 5
15 -9 17 -5 17 24 0 82 36 120 74 78 27 -30 17 -63 -22 -73 -29 -8 -33 -12
-28 -36 3 -15 8 -64 11 -109 l7 -82 25 12 c19 8 26 8 32 -2 5 -7 11 22 15 68
4 45 9 81 10 81 2 0 17 -5 34 -11 55 -19 63 -98 12 -114 -18 -6 -20 -15 -20
-115 l0 -109 35 2 35 2 0 83 c0 45 3 82 7 82 4 0 21 -5 38 -11 23 -9 34 -21
43 -51 14 -44 6 -62 -29 -73 -18 -6 -19 -18 -19 -161 0 -96 4 -154 10 -154 6
0 10 -22 10 -50 0 -35 4 -50 14 -50 9 0 15 22 20 78 3 42 11 123 18 178 10 91
13 101 30 96 30 -8 58 -74 57 -134 -1 -29 -4 -41 -6 -25 -8 53 -18 26 -15 -39
3 -41 0 -64 -6 -60 -14 9 -25 -168 -17 -278 7 -88 8 -93 30 -93 21 -1 23 5 29
75 3 41 6 121 6 177 0 56 3 105 6 108 11 11 62 -25 68 -47 11 -40 6 -194 -5
-198 -7 -2 -18 -63 -27 -149 -14 -127 -14 -165 -2 -292 13 -144 14 -147 37
-147 21 0 23 4 23 58 1 112 19 484 23 489 3 2 14 0 25 -6 31 -16 55 -104 56
-201 0 -107 -13 -222 -25 -214 -5 3 -15 -7 -21 -23 -15 -33 -18 -573 -4 -745
8 -103 9 -108 31 -108 23 0 23 0 30 198 4 108 5 321 3 473 -5 269 -5 276 13
258 11 -11 23 -19 29 -19 6 0 10 -11 10 -25 0 -14 10 -45 21 -68 20 -38 22
-62 27 -284 4 -179 2 -243 -7 -243 -7 0 -11 -20 -11 -56 0 -30 -4 -53 -9 -50
-5 3 -11 -11 -14 -32 -3 -20 -11 -68 -18 -107 -15 -82 -20 -2003 -5 -2187 7
-102 9 -107 27 -97 11 5 23 8 28 5 18 -11 21 171 21 1287 0 636 3 1157 6 1157
14 0 50 -57 56 -90 3 -19 11 -53 17 -75 22 -78 31 -521 29 -1357 -3 -801 -4
-848 -20 -848 -12 0 -18 -8 -18 -22 0 -36 -11 -68 -21 -62 -11 6 -11 -39 -3
-123 6 -55 8 -59 29 -55 19 3 23 12 29 64 3 34 6 89 6 124 l0 62 25 -11 c13
-7 31 -28 39 -47 19 -46 30 -140 16 -140 -5 0 -10 -9 -10 -20 0 -11 -7 -23
-15 -26 -11 -5 -15 -21 -15 -59 0 -53 0 -54 30 -53 29 1 30 3 30 48 0 33 6 53
20 68 l21 22 30 -31 c18 -18 28 -37 25 -46 -3 -8 -6 -17 -6 -19 0 -2 -11 -4
-24 -4 -30 0 -42 -16 -26 -36 9 -10 10 -33 6 -75 -8 -67 12 -289 26 -289 4 0
8 -7 8 -16 0 -9 7 -14 18 -12 15 3 18 23 23 186 4 101 10 186 13 189 3 4 16 2
29 -4 24 -11 47 -68 47 -116 0 -20 -4 -24 -20 -20 -21 6 -26 -10 -14 -42 6
-13 9 -14 16 -3 18 25 -3 -129 -22 -168 -11 -21 -20 -43 -20 -50 0 -6 -6 -17
-14 -23 -8 -7 -16 -44 -20 -99 -9 -105 -21 -165 -36 -170 -6 -2 -17 -17 -26
-34 -12 -24 -18 -27 -30 -17 -11 9 -14 45 -14 178 0 91 -3 196 -7 233 -5 62
-8 68 -28 68 -21 0 -23 -6 -35 -136 -11 -123 -8 -287 6 -336 3 -10 12 -18 20
-18 9 0 14 -11 14 -29 0 -17 5 -33 11 -37 8 -5 10 -34 5 -96 -9 -120 -15 -146
-35 -153 -35 -11 -50 -58 -60 -196 -29 -385 -33 -551 -24 -983 9 -485 8 -627
-5 -635 -5 -3 -12 -46 -16 -96 -4 -49 -12 -91 -17 -93 -13 -5 -12 -382 1 -382
6 0 10 -20 10 -45 0 -31 4 -45 13 -45 19 0 37 201 37 402 0 141 2 157 18 160
24 5 51 -55 52 -116 0 -27 5 -66 11 -86 15 -50 3 -273 -15 -267 -17 7 -38
-209 -30 -299 6 -69 7 -71 34 -70 26 1 28 4 34 66 3 36 6 119 6 186 0 66 3
123 6 127 11 10 56 -52 66 -91 6 -20 14 -64 20 -97 17 -101 18 -105 38 -125
23 -23 47 -76 66 -148 16 -62 19 -146 4 -122 -7 11 -10 7 -10 -19 0 -20 -7
-40 -18 -50 -28 -24 -35 -130 -20 -272 11 -111 14 -119 34 -119 19 0 22 7 28
77 3 42 6 127 6 190 0 85 4 118 14 128 12 12 16 10 26 -16 7 -16 19 -33 26
-37 13 -7 34 -141 34 -218 0 -37 -2 -42 -20 -37 -18 5 -20 0 -20 -41 0 -25 -4
-46 -8 -46 -5 0 -12 -230 -16 -510 -6 -451 -5 -513 9 -526 8 -9 15 -29 15 -45
0 -18 4 -28 10 -24 5 3 11 -4 11 -17 1 -17 3 -18 6 -5 2 9 9 14 15 11 8 -5 10
118 8 412 -2 230 -3 507 -2 616 l2 196 28 -26 c51 -49 63 -133 43 -301 -9 -79
-10 -130 -2 -210 6 -58 16 -200 21 -316 10 -199 9 -213 -10 -271 -15 -43 -28
-64 -45 -72 -31 -14 -32 -23 -45 -347 -6 -148 -15 -310 -19 -360 -5 -49 -6
-192 -3 -317 l5 -227 25 20 26 20 18 -23 c10 -13 18 -40 18 -64 l0 -41 50 5
c34 3 62 -1 85 -12 41 -20 53 -36 26 -36 -11 0 -23 -4 -26 -10 -3 -5 -24 -10
-46 -10 -27 0 -39 -4 -39 -14 0 -8 4 -17 9 -20 13 -8 92 -9 121 -1 79 20 171
18 363 -11 67 -10 39 -21 -75 -28 -62 -4 -157 -11 -210 -14 -102 -7 -136 -21
-100 -41 28 -15 257 -21 367 -10 50 5 209 12 355 14 146 3 315 8 375 12 61 4
351 8 645 9 294 0 627 4 740 9 182 7 207 10 225 28 60 58 183 75 269 36 49
-21 121 -24 164 -6 45 20 26 32 -71 42 -55 6 -67 11 -67 25 0 26 27 44 70 45
21 0 44 6 52 13 8 6 18 9 21 5 4 -3 7 -2 7 4 0 6 19 39 41 73 l42 62 -6 146
c-4 81 -11 165 -16 187 -10 41 -6 59 9 36 7 -12 11 -12 24 2 20 20 22 103 2
123 -31 31 -55 8 -56 -52 0 -30 -41 -20 -80 19 -28 28 -40 60 -22 55 4 -1 24
4 45 12 41 16 49 43 18 60 -44 23 -80 0 -81 -51 l0 -27 -62 32 c-66 33 -90 58
-72 76 7 7 19 8 35 2 32 -12 103 8 107 30 2 9 -8 24 -22 33 -31 21 -91 13
-100 -12 -4 -9 -9 -13 -12 -10 -4 3 -12 0 -20 -7 -20 -21 -103 -12 -128 14
-21 21 -21 21 -2 36 11 8 42 14 70 14 70 0 96 9 96 31 0 40 -162 40 -204 0
-23 -21 -28 -22 -80 -11 -57 12 -90 33 -83 54 2 6 41 14 92 18 103 8 135 15
135 29 0 6 -4 7 -10 4 -5 -3 -10 -2 -10 3 0 16 -86 34 -132 29 -73 -8 -92 -13
-127 -31 -22 -12 -44 -16 -66 -12 -33 7 -85 40 -85 56 0 4 44 11 98 15 111 9
151 20 134 37 -28 28 -190 32 -219 6 -14 -13 -36 -18 -74 -18 -56 1 -89 16
-89 42 0 19 28 27 95 29 59 1 97 11 102 25 7 20 -47 34 -127 34 -69 0 -82 -3
-108 -25 -37 -31 -43 -31 -81 1 -28 23 -44 53 -21 39 5 -3 23 1 39 10 17 8 41
15 55 15 29 0 56 9 56 20 0 10 -69 38 -106 43 -33 5 -55 -7 -72 -40 l-12 -22
-35 20 c-19 12 -35 26 -35 32 0 7 21 19 48 27 54 18 63 45 21 69 -33 19 -76 8
-91 -23 -11 -26 -29 -25 -60 2 -26 22 -23 29 27 52 39 18 44 23 35 40 -16 31
-67 36 -102 10 -23 -17 -39 -21 -65 -17 -40 7 -86 34 -79 46 3 4 33 11 68 15
72 7 90 19 66 43 -22 21 -93 21 -133 -1 -16 -9 -48 -16 -71 -16 -46 0 -140 29
-127 40 12 10 109 30 148 30 19 0 46 4 60 10 50 19 2 47 -85 51 l-52 3 8 35
c4 20 8 396 9 836 9 2779 8 2878 -5 3013 -12 113 -16 132 -31 132 -15 0 -18
-16 -26 -107 -4 -60 -8 -964 -8 -2011 l0 -1902 -21 0 c-20 0 -22 7 -28 82 -5
51 -14 93 -24 108 -16 23 -17 93 -18 800 -3 1766 -5 2177 -14 2454 -6 185 -6
292 0 294 6 2 10 19 10 37 0 18 4 35 10 37 10 3 23 55 40 163 13 84 11 280 -5
405 -7 58 -14 101 -15 95 -3 -19 -19 30 -19 63 -2 58 -18 34 -24 -35 -4 -38
-7 -206 -7 -375 l0 -307 -24 22 c-12 12 -26 40 -30 62 -4 22 -12 45 -17 52
-16 18 -22 248 -11 351 6 50 18 116 26 145 29 107 37 152 43 273 3 68 10 124
15 124 4 0 8 25 8 55 0 30 -4 55 -10 55 -13 0 -14 177 -1 182 5 2 11 102 13
223 4 213 5 221 29 257 13 20 34 42 47 47 22 10 22 10 22 -59 l0 -70 -27 11
c-31 11 -53 6 -53 -14 0 -26 28 -41 54 -29 20 9 25 8 30 -4 3 -9 6 -241 6
-517 0 -561 7 -787 24 -787 7 0 18 61 29 168 14 137 17 265 17 719 0 521 -1
553 -18 565 -10 7 -22 19 -26 26 -9 15 14 82 29 82 6 0 21 9 33 20 l22 21 0
-94 0 -95 31 -4 31 -5 -7 111 c-4 61 -10 115 -12 119 -3 5 -14 7 -24 4 -15 -4
-19 0 -19 23 0 46 18 74 59 91 l39 17 6 -72 c10 -100 15 -116 37 -116 10 0 19
5 19 11 0 5 5 7 11 3 9 -5 10 18 5 92 -8 108 -17 134 -46 134 -24 0 -25 11 -5
87 15 57 54 111 72 100 6 -4 13 -48 17 -99 9 -126 14 -148 37 -148 11 0 19 7
19 15 0 8 5 15 10 15 6 0 10 36 10 88 0 76 -3 89 -20 102 -16 11 -20 27 -21
70 -1 30 -3 46 -6 35 -17 -80 -25 -52 -12 41 10 64 18 86 43 116 17 20 34 34
38 32 5 -3 8 -43 8 -88 0 -130 10 -205 26 -199 8 3 20 0 28 -6 11 -9 14 2 20
63 8 83 -2 208 -15 200 -5 -3 -9 2 -9 10 0 9 -4 16 -10 16 -5 0 -10 21 -11 48
0 37 -2 43 -10 27 -13 -29 -4 117 12 180 7 28 21 68 31 91 10 22 18 47 18 55
0 8 6 23 14 34 18 27 36 192 45 425 6 150 12 203 25 227 9 18 16 43 16 56 0
13 12 37 26 52 l26 28 -2 366 c-3 434 -3 444 10 436 6 -3 10 0 10 9 0 8 4 16
8 18 11 4 42 315 42 418 0 47 -5 140 -12 208 -10 102 -15 122 -29 122 -22 0
-27 -63 -36 -447 -6 -295 -7 -311 -23 -290 -38 50 -56 154 -76 435 -5 78 -4
92 9 92 17 0 27 29 27 83 0 21 4 36 9 33 5 -3 12 37 16 89 8 105 -2 285 -16
285 -5 0 -9 20 -9 45 0 25 -4 45 -10 45 -5 0 -10 -23 -10 -51 0 -27 -4 -48 -8
-45 -9 5 -22 -212 -22 -367 0 -85 -1 -87 -20 -75 -47 30 -98 328 -55 328 8 0
16 13 19 33 21 128 25 221 18 397 -5 107 -6 290 -4 407 l4 211 24 5 c13 2 24
0 24 -4 0 -5 14 -9 30 -9 29 0 30 1 30 49 0 44 2 49 25 53 14 3 25 1 25 -3 0
-5 11 -9 25 -9 24 0 25 3 25 54 0 52 1 54 30 58 17 3 30 1 30 -4 0 -4 9 -8 20
-8 17 0 20 7 20 49 0 48 0 49 35 53 19 2 35 0 35 -4 0 -4 11 -8 25 -8 23 0 25
3 25 50 0 36 4 52 15 56 23 9 18 33 -10 40 -46 11 -50 30 -15 66 l33 32 18
-23 c13 -15 19 -39 19 -70 0 -42 2 -46 25 -46 24 0 25 3 25 55 0 74 -8 100
-31 100 -22 0 -22 1 -8 50 7 24 21 42 36 49 46 21 50 16 57 -66 7 -74 8 -78
31 -78 21 0 25 5 25 33 0 17 5 32 10 32 6 0 10 30 10 70 0 40 -4 70 -10 70 -5
0 -10 11 -10 24 0 17 7 25 25 28 32 7 35 3 35 -49 0 -36 3 -43 20 -43 17 0 20
7 20 44 0 25 5 46 12 48 6 2 33 1 60 -2 26 -4 48 -3 48 2 0 4 11 8 24 8 14 0
28 5 31 10 4 6 11 8 16 5 5 -4 9 -2 9 3 0 12 -25 22 -56 22 -13 0 -24 5 -24
10 0 6 -22 10 -50 10 -38 0 -50 4 -50 15 0 9 10 16 28 17 15 1 35 2 44 3 9 0
20 3 23 7 4 3 21 2 38 -3 35 -11 186 -13 211 -3 46 17 -2 44 -79 44 -54 0 -95
12 -95 27 0 18 64 45 93 38 12 -2 36 -7 52 -10 17 -2 48 -8 71 -13 53 -11 161
14 142 33 -3 3 -45 11 -93 18 -90 13 -119 31 -68 42 15 4 41 11 56 17 20 8 35
8 55 -2 27 -12 167 -15 197 -4 24 10 12 29 -21 32 -69 7 -134 24 -134 36 0 26
44 35 121 24 41 -6 93 -11 117 -11 44 0 92 19 92 36 0 6 -3 7 -7 4 -3 -4 -12
-2 -18 3 -7 6 -46 13 -89 16 -100 9 -101 22 -4 55 45 15 50 15 76 -1 22 -14
45 -17 102 -14 41 2 78 8 83 13 19 19 -5 31 -59 31 -59 0 -94 13 -94 34 0 19
54 39 82 30 43 -14 180 -20 198 -9 18 11 11 32 -12 39 -13 3 -47 6 -76 6 -57
0 -78 19 -50 46 21 22 119 20 152 -2 45 -29 153 -2 125 32 -6 7 -36 16 -67 19
-81 9 -89 12 -71 29 8 7 33 24 56 36 l42 23 27 -26 c30 -31 87 -37 120 -13 26
20 12 31 -60 48 l-59 15 29 26 c33 31 60 34 86 10 21 -19 93 -20 114 -2 11 9
14 8 14 -5 0 -9 7 -16 15 -16 11 0 15 13 15 54 0 51 1 53 25 48 14 -2 31 1 39
7 11 9 15 8 20 -4 11 -30 26 -4 26 45 l0 49 60 -5 60 -4 0 49 c0 44 3 50 23
53 14 2 22 10 22 23 0 15 -9 21 -38 26 -20 3 -40 8 -43 12 -11 11 29 57 50 57
34 0 46 -19 46 -72 0 -47 1 -48 30 -48 29 0 30 2 30 44 0 30 5 46 15 50 22 8
19 46 -4 46 -57 0 -66 32 -25 86 32 42 44 43 44 5 0 -17 5 -33 10 -36 6 -3 10
-26 10 -49 0 -40 2 -43 25 -43 22 0 25 4 25 39 0 23 7 46 16 55 14 15 13 18
-15 42 -31 27 -40 54 -21 66 6 3 10 13 10 21 0 17 49 63 68 64 7 0 17 11 24
25 13 28 88 82 88 63 0 -9 3 -8 10 2 8 12 10 11 10 -7 0 -13 -4 -23 -10 -23
-5 0 -10 -9 -10 -20 0 -11 -5 -20 -10 -20 -6 0 -4 -11 5 -24 11 -17 22 -22 40
-18 22 4 25 9 25 49 0 28 6 51 16 61 15 14 15 17 -2 29 -11 8 -29 12 -41 10
-35 -6 -30 35 7 66 17 14 30 30 30 35 0 5 11 22 25 38 14 16 25 35 25 41 0 12
60 43 81 43 5 0 9 -13 9 -29 0 -15 3 -49 6 -75 5 -35 11 -46 25 -46 9 0 19 -6
22 -12 5 -16 24 192 19 210 -2 6 -17 12 -33 12 -18 0 -32 6 -36 16 -7 20 22
84 39 84 7 0 25 6 39 14 l26 13 7 -70 c4 -39 9 -81 12 -94 7 -26 34 -32 34 -7
0 14 3 14 16 4 13 -12 14 -2 10 99 -3 61 -8 116 -11 121 -4 6 -17 10 -31 10
-20 0 -24 5 -24 28 0 35 26 72 50 72 10 0 22 5 25 10 16 26 24 3 27 -77 3 -85
3 -87 31 -94 20 -6 27 -4 27 7 0 9 5 12 11 8 9 -5 10 22 4 102 -4 60 -9 112
-12 117 -2 4 -15 7 -29 7 -18 0 -24 5 -24 22 0 54 30 96 92 126 4 2 9 -41 11
-95 6 -125 15 -173 33 -173 8 0 14 10 14 23 0 37 12 67 23 60 7 -4 8 22 3 82
-9 118 -13 132 -43 140 -24 6 -25 8 -18 63 4 31 13 64 21 73 8 8 14 20 14 25
0 6 10 21 22 34 l23 24 6 -29 c4 -17 7 -74 8 -128 1 -63 5 -96 11 -92 6 4 10
-13 10 -44 0 -39 4 -51 15 -51 12 0 15 13 16 58 0 31 3 51 6 45 14 -35 23 -4
23 78 0 67 -4 94 -15 105 -9 9 -15 34 -15 58 0 41 -19 74 -33 59 -11 -11 -6
50 6 83 7 17 22 43 33 59 19 25 24 27 38 16 11 -10 16 -31 16 -75 0 -33 3 -91
6 -128 6 -63 8 -66 35 -70 l27 -4 7 91 c7 86 5 128 -12 255 -7 53 -7 54 -14
20 -6 -31 -7 -28 -8 21 -1 60 8 73 47 62 18 -4 21 -16 27 -89 7 -80 9 -84 31
-84 22 0 24 4 24 45 0 25 5 45 10 45 6 0 10 18 10 40 l0 40 53 1 c28 1 68 1
87 1 44 0 60 20 53 63 l-5 34 98 0 c168 0 349 13 362 25 13 13 -13 18 -159 26
-154 10 -189 20 -153 47 11 8 52 10 138 6 283 -13 537 -6 558 15 16 16 -13 20
-217 33 -104 6 -199 15 -210 19 -18 7 -18 8 5 21 30 17 236 19 345 4 98 -13
740 -4 820 12 64 13 -15 22 -232 28 -511 13 -588 21 -478 54 47 14 405 11 610
-6 127 -10 521 -10 598 -1 32 4 68 13 80 19 l21 12 -24 10 c-14 5 -176 12
-360 14 -203 3 -340 9 -348 16 -30 24 21 40 188 62 25 3 115 6 200 6 126 1
163 -2 195 -16 51 -22 65 -24 213 -34 174 -12 362 -2 405 21 44 23 -18 32
-273 39 -140 4 -261 8 -267 8 -22 2 -14 31 11 41 71 27 341 49 375 30 17 -9
20 -6 23 17 3 24 12 30 73 51 94 33 291 42 332 15 30 -20 29 -20 111 -35 94
-18 258 10 229 38 -12 13 -101 23 -202 24 -116 0 -139 8 -111 39 29 32 202 61
225 38 8 -8 11 -3 11 14 0 32 23 52 76 67 57 17 85 15 136 -8 62 -27 122 -35
158 -20 29 12 39 33 21 44 -5 3 -42 6 -82 7 -41 1 -80 6 -86 12 -27 20 21 61
82 70 11 1 25 6 31 10 7 4 19 -4 28 -19 24 -35 59 -47 107 -34 21 6 41 16 45
22 11 17 -25 38 -65 38 -84 0 -105 26 -48 60 43 27 69 25 97 -6 21 -21 30 -24
63 -18 21 3 50 12 64 19 25 13 25 13 5 24 -12 6 -31 11 -44 11 -31 1 -62 25
-55 44 11 28 41 36 75 19 41 -20 60 -12 64 29 2 28 7 34 31 36 25 3 27 1 27
-36 0 -27 5 -42 16 -46 22 -8 24 -8 24 9 0 8 6 12 14 9 8 -3 17 -1 21 5 3 7
-2 11 -14 11 -16 0 -21 6 -21 24 0 25 0 25 123 28 67 2 205 0 307 -3 294 -9
728 -3 783 11 48 13 57 22 35 37 -7 4 -224 11 -483 14 -445 7 -535 11 -535 29
0 4 26 12 58 18 118 23 295 35 549 36 209 1 263 4 263 14 0 18 98 61 167 73
32 5 100 9 152 8 80 -1 103 -6 145 -27 42 -21 69 -26 156 -30 105 -4 215 9
234 28 26 26 -17 33 -201 38 -103 2 -192 7 -196 11 -18 17 8 42 57 56 59 16
234 26 242 14 3 -5 26 -19 52 -31 39 -18 63 -22 137 -21 50 1 104 7 120 14 17
7 33 12 38 11 4 -1 7 4 7 11 0 18 0 18 -175 24 -82 2 -154 8 -159 13 -18 18
39 56 100 68 77 16 134 8 180 -23 33 -22 44 -24 133 -22 60 1 104 7 113 14 8
7 18 10 21 6 4 -3 7 1 7 9 0 23 -14 26 -146 33 -139 8 -146 9 -138 30 11 27
63 46 135 51 63 5 73 3 98 -19 49 -41 221 -36 221 7 0 16 -42 26 -124 27 -33
1 -72 4 -86 8 l-24 7 21 21 c43 43 145 52 180 18 21 -21 58 -28 106 -21 105
16 117 19 117 31 0 14 -34 20 -152 31 -84 7 -97 19 -52 49 38 25 87 30 115 12
36 -23 198 -33 224 -13 31 23 8 35 -75 37 -89 2 -100 5 -100 29 0 22 21 31 84
36 27 2 52 6 54 9 3 2 17 -2 33 -10 18 -10 42 -13 66 -9 73 11 72 26 -3 44
l-56 14 23 19 c17 14 31 17 54 12 41 -9 1031 -18 1132 -10 79 6 127 25 110 42
-5 4 -230 11 -500 14 -500 6 -641 13 -634 32 7 21 109 35 302 41 110 4 259 9
330 12 279 11 358 9 387 -10 38 -25 67 -29 200 -30 81 -1 121 3 130 12 23 23
-7 33 -128 38 -65 3 -135 7 -154 10 l-35 6 27 23 c46 40 175 48 253 16 71 -29
215 -20 215 13 0 18 -45 26 -142 26 -62 0 -80 3 -85 16 -9 24 18 43 80 56 50
11 61 10 87 -5 32 -20 53 -26 115 -34 31 -4 46 0 65 16 21 17 23 22 10 31 -8
5 -41 10 -72 10 -31 0 -63 3 -72 6 -39 15 2 64 61 73 27 5 39 12 41 26 6 31
33 56 82 78 25 11 67 40 94 63 26 24 53 44 58 44 6 0 28 20 50 45 22 25 49 48
61 51 12 3 35 23 50 44 18 25 40 43 60 48 35 9 33 13 55 -98 9 -46 42 -52 42
-8 0 16 5 38 10 48 15 28 3 66 -22 67 -29 3 -31 8 -24 48 5 25 14 39 31 45 28
11 85 65 85 81 0 16 72 89 82 83 4 -3 8 -32 8 -64 0 -68 7 -90 27 -90 27 0 43
28 43 75 0 44 -16 75 -38 75 -25 0 -22 100 4 121 10 8 14 36 13 98 0 90 -20
207 -32 195 -4 -4 -7 -2 -7 5 0 7 -4 10 -9 7 -5 -4 -112 -7 -238 -9 -164 -1
-237 1 -254 10 -50 25 -108 33 -219 29 -199 -8 -320 -21 -320 -36 0 -10 78
-16 260 -18 194 -3 250 -10 250 -32 0 -46 -200 -71 -271 -34 -47 24 -177 29
-374 14 -88 -6 -180 -11 -205 -11 -159 5 -309 1 -330 -7 -19 -7 1 -11 90 -16
63 -3 151 -5 195 -4 91 2 436 -10 508 -18 27 -4 47 -11 47 -18 0 -36 -163 -47
-320 -21 -118 19 -1200 16 -1244 -3 -70 -31 -17 -36 417 -44 525 -8 645 -13
677 -26 l25 -10 -28 -11 c-65 -25 -873 -40 -957 -17 -122 34 -342 39 -714 18
-207 -12 -236 -15 -225 -27 3 -2 167 -7 364 -11 198 -3 369 -8 380 -9 11 -2
45 -4 76 -4 41 -1 59 -5 63 -16 11 -30 -20 -37 -239 -51 -156 -10 -187 -9
-235 11 -63 25 -290 34 -790 30 -431 -4 -564 -14 -537 -42 16 -15 238 -22 722
-23 619 0 666 -4 567 -46 -66 -27 -174 -33 -589 -33 -414 0 -440 1 -505 14
-40 8 -41 8 -218 25 -152 14 -459 4 -534 -17 -19 -5 -19 -6 0 -17 12 -7 137
-12 366 -16 190 -3 350 -8 354 -13 16 -16 -35 -36 -125 -47 -84 -12 -273 -9
-431 5 -19 2 -91 9 -160 15 -144 14 -318 6 -370 -17 l-35 -15 25 -10 c14 -5
136 -12 273 -15 224 -6 247 -8 247 -23 0 -14 -18 -21 -84 -34 -102 -20 -270
-28 -305 -14 -67 26 -145 37 -272 36 -142 -1 -199 -10 -199 -32 0 -17 51 -22
264 -31 77 -3 142 -8 145 -11 11 -11 -32 -33 -85 -44 -82 -17 -172 -14 -259 9
-126 33 -365 21 -365 -18 0 -15 41 -21 140 -21 155 0 231 -10 228 -29 -7 -35
-226 -72 -268 -46 -8 5 -19 10 -25 12 -46 10 -56 13 -65 18 -12 7 -156 8 -189
1 -12 -3 -30 -11 -38 -17 -25 -22 10 -31 140 -36 144 -7 159 -11 127 -41 -34
-31 -164 -47 -193 -24 -7 6 -14 10 -17 10 -3 0 -25 5 -50 12 -75 20 -260 -4
-233 -31 5 -5 67 -15 136 -21 70 -6 127 -15 127 -18 0 -25 -120 -66 -149 -51
-52 26 -127 33 -356 30 -132 -2 -271 -3 -310 -3 -701 4 -995 2 -1063 -5 -46
-5 -88 -8 -95 -8 -96 3 -56 -20 47 -27 67 -5 1040 -18 1481 -20 73 -1 128 -6
140 -13 19 -11 18 -12 -9 -19 -16 -4 -48 -2 -72 3 -44 10 -126 10 -194 -1 -64
-9 -576 -31 -710 -30 -75 1 -249 8 -535 22 -82 4 -217 6 -300 5 -164 -3 -269
-4 -300 -3 -11 1 -53 1 -93 0 -81 -1 -94 3 -85 26 5 14 22 16 104 12 55 -2 99
0 99 4 0 4 24 8 53 8 65 0 127 10 127 21 0 4 -26 11 -57 14 -32 4 -71 10 -88
13 -43 7 -95 7 -225 -3 -160 -12 -342 -11 -365 2 -19 11 -18 12 5 16 14 3 104
13 200 23 178 17 227 27 180 38 -58 13 -232 29 -325 30 l-60 1 -5 40 c-4 35
-8 40 -34 42 -46 3 -53 9 -59 50 -9 65 -28 133 -38 133 -14 0 -11 45 5 77 8
15 17 36 20 45 3 9 14 21 24 27 22 12 19 27 38 -168 5 -54 8 -59 32 -64 15 -3
29 -3 31 -1 3 3 5 59 5 126 1 88 -2 122 -12 126 -6 2 -12 10 -12 17 0 8 -7 18
-16 23 -25 14 -15 181 15 239 11 23 21 49 21 56 0 8 6 17 14 20 18 7 26 -53
26 -192 0 -58 3 -136 6 -173 6 -63 8 -67 30 -66 21 2 24 7 24 45 0 24 5 43 10
43 6 0 10 52 10 136 0 107 -3 139 -15 150 -8 9 -15 28 -15 44 0 16 -5 30 -12
32 -16 6 -31 251 -21 353 4 44 9 247 10 450 3 634 6 675 48 675 29 0 38 44 43
217 4 137 8 173 18 173 8 0 14 7 14 15 0 8 5 15 10 15 6 0 10 21 10 46 0 27 4
43 10 39 12 -7 13 35 4 122 -6 58 -7 59 -34 55 -27 -4 -28 -6 -34 -80 -13
-144 -16 -160 -35 -155 -24 6 -61 86 -60 126 1 17 3 24 6 15 5 -19 43 -25 43
-7 0 5 -4 7 -10 4 -6 -4 -10 13 -10 44 0 28 5 51 10 51 6 0 10 25 10 55 0 51
-10 69 -25 44 -4 -6 -13 -8 -20 -5 -9 3 -15 -8 -18 -37 -12 -94 -18 -107 -38
-96 -54 28 -64 109 -14 109 18 0 25 5 25 19 0 11 -4 23 -10 26 -5 3 -10 26
-10 51 0 42 -1 44 -29 44 -29 0 -30 -2 -33 -52 -3 -47 -6 -53 -26 -56 -28 -4
-52 14 -52 39 0 13 9 19 32 21 38 4 55 38 19 38 -19 0 -21 6 -21 55 0 30 -3
55 -7 56 -5 0 -18 2 -30 5 -12 2 -29 -3 -37 -11 -15 -16 -36 -16 -47 -2 -3 4
-18 3 -33 -3 -40 -15 -76 -12 -83 6 -11 29 13 39 66 28 48 -10 50 -9 54 14 3
13 2 33 -1 44 -4 18 -11 19 -58 14 l-54 -6 0 49 0 49 -72 0 c-47 0 -81 -5 -97
-15 -26 -17 -135 -13 -153 5 -17 17 1 32 40 33 50 1 125 21 129 35 10 29 -154
43 -239 21 -65 -18 -146 -14 -167 8 -8 8 -12 17 -8 21 3 4 59 13 123 20 64 8
119 16 122 19 12 12 -6 18 -103 34 -60 11 -119 7 -235 -15 -115 -21 -382 -8
-440 21 l-25 13 25 6 c14 3 139 9 278 14 247 8 301 17 256 40 -35 17 -287 22
-474 9 -186 -13 -364 -16 -420 -7 -85 13 -175 16 -285 10z m525 -70 c0 -5 -6
-10 -14 -10 -8 0 -18 5 -21 10 -3 6 3 10 14 10 12 0 21 -4 21 -10z m270 -141
c36 -5 106 -23 155 -38 50 -16 116 -34 149 -41 72 -15 306 -108 395 -157 197
-110 407 -283 471 -388 13 -22 38 -59 56 -83 36 -48 81 -172 90 -248 11 -87
-18 -200 -81 -322 -35 -66 -59 -127 -62 -153 -5 -44 15 -147 57 -299 45 -160
36 -512 -15 -660 -19 -55 -29 -109 -35 -200 -10 -134 -30 -224 -100 -430 -67
-200 -145 -344 -255 -472 -150 -174 -172 -218 -117 -239 17 -7 88 -8 202 -4
153 5 186 3 260 -14 47 -10 166 -37 266 -59 99 -22 210 -52 245 -67 89 -36
298 -85 394 -92 58 -4 114 1 203 16 67 12 204 26 305 32 100 5 241 19 312 30
182 29 505 28 730 -1 90 -12 178 -19 202 -15 50 7 282 93 333 123 40 24 238
102 350 139 41 13 109 37 150 53 41 15 119 38 173 49 54 12 130 32 168 46 38
13 117 33 176 45 60 12 145 32 191 45 87 25 151 35 375 60 75 8 186 26 246 40
60 14 183 34 273 45 90 10 224 28 298 39 185 27 383 41 591 41 153 0 348 17
428 37 14 3 48 17 75 29 27 13 79 28 115 34 425 70 486 77 781 85 270 8 358
17 545 61 83 19 179 42 214 50 36 8 90 26 120 40 37 17 106 33 215 49 89 14
185 29 215 35 29 5 69 10 87 10 36 0 46 -14 17 -23 -658 -195 -1170 -292
-1688 -317 -267 -13 -386 -24 -529 -51 -111 -20 -249 -65 -295 -96 -22 -14
-52 -16 -216 -14 -435 5 -1149 -82 -1913 -234 -489 -98 -1044 -301 -1313 -481
l-70 -47 -117 17 c-186 26 -331 36 -558 36 -484 0 -951 -70 -1263 -190 -42
-16 -69 -24 -60 -17 9 7 21 22 28 35 25 47 0 62 -210 130 -306 98 -522 143
-776 161 -584 42 -1032 -170 -1242 -587 l-32 -63 -27 20 c-15 10 -68 54 -117
98 -339 295 -633 637 -1000 1162 -109 155 -135 187 -158 189 -21 3 -29 -2 -38
-22 -10 -21 -7 -32 24 -83 66 -110 177 -322 247 -474 243 -523 400 -1049 457
-1527 17 -148 24 -558 10 -672 -30 -254 -93 -513 -158 -645 -95 -195 -268
-338 -513 -424 -244 -86 -622 -122 -1046 -100 -183 9 -234 14 -560 49 -102 12
-264 32 -360 45 -496 69 -819 104 -1023 110 -345 10 -527 -48 -593 -189 -19
-41 -24 -68 -24 -141 l-1 -90 -28 61 c-143 308 -436 495 -826 529 -38 3 -95 8
-125 11 -69 7 -286 -11 -453 -36 -400 -61 -693 -186 -1022 -435 -142 -107
-264 -215 -550 -485 -278 -263 -412 -382 -570 -509 -355 -286 -731 -506 -1150
-673 -76 -30 -485 -172 -700 -243 -13 -4 -10 1 10 17 162 126 264 242 330 373
96 194 133 435 150 990 19 624 115 1110 345 1753 12 31 14 32 70 32 157 0 330
111 370 237 19 57 20 57 59 20 49 -47 88 -65 164 -76 150 -21 247 32 283 157
21 72 15 180 -23 422 -23 149 -27 206 -27 385 0 249 8 290 103 492 69 150 122
308 161 483 26 117 28 122 35 85 12 -70 16 -77 58 -95 124 -55 663 -156 1377
-259 362 -52 524 -70 700 -75 115 -4 181 -12 319 -41 308 -63 777 -132 1036
-151 50 -3 92 -8 95 -9 3 -2 70 -6 150 -10 80 -3 159 -8 175 -10 99 -12 474
-15 635 -6 388 24 655 85 792 182 25 18 32 19 39 8 19 -31 31 -128 26 -215 -9
-163 -83 -315 -303 -629 -227 -323 -333 -534 -380 -753 -42 -198 36 -384 245
-584 221 -212 574 -396 940 -488 330 -83 654 -92 916 -25 241 63 436 187 539
344 120 184 173 392 183 711 12 409 -66 872 -232 1365 -131 392 -285 715 -480
1010 -116 174 -195 273 -319 396 -195 195 -353 286 -602 348 -207 51 -251 56
-524 55 -234 0 -266 -2 -391 -27 -348 -68 -688 -201 -979 -382 l-94 -59 -201
-1 c-180 -2 -210 -4 -300 -28 -117 -30 -230 -69 -298 -104 l-49 -24 -42 45
c-144 155 -462 179 -1421 105 -729 -56 -1259 -24 -1549 92 l-59 24 -31 100
c-39 122 -73 187 -138 260 -89 99 -198 145 -347 145 -79 0 -90 -2 -110 -23
-17 -19 -40 -27 -109 -37 -195 -28 -347 -89 -441 -175 -77 -72 -103 -131 -109
-246 -6 -117 19 -196 99 -309 8 -12 -13 -58 -91 -205 -146 -274 -434 -855
-512 -1031 -37 -84 -78 -187 -90 -230 -13 -43 -51 -130 -86 -194 -377 -686
-1087 -2352 -1456 -3413 -138 -395 -260 -820 -281 -977 -4 -30 -23 -93 -41
-141 -169 -438 -159 -865 27 -1143 158 -237 455 -402 850 -471 127 -22 355
-38 462 -32 122 7 198 26 292 74 54 27 157 57 445 128 1228 305 2362 652 3198
979 79 31 145 56 147 56 1 0 8 -15 15 -32 50 -127 192 -388 320 -588 140 -219
232 -417 331 -710 206 -613 318 -1366 350 -2346 12 -360 12 -376 -18 -1119 -6
-146 10 -233 63 -343 49 -101 160 -215 252 -258 l63 -29 -5 -120 c-11 -260
-92 -592 -226 -930 -89 -225 -139 -413 -171 -645 -20 -143 -17 -560 5 -735 59
-471 171 -891 418 -1580 249 -693 251 -700 227 -1080 -19 -303 -18 -360 10
-417 34 -72 71 -85 261 -91 85 -3 182 -13 215 -21 354 -87 538 11 590 314 7
41 16 203 19 360 4 157 16 535 27 840 26 700 36 1904 20 2215 -14 269 -36 480
-61 604 -18 88 -18 103 -5 230 29 279 38 487 40 891 l1 416 51 66 c180 234
393 679 516 1078 196 631 252 1257 166 1855 -32 223 -82 427 -173 703 -136
409 -176 600 -176 831 0 341 97 515 425 756 140 103 242 198 286 267 66 103
88 242 49 319 -24 45 -29 41 80 58 132 21 303 86 575 220 288 141 454 232 653
357 966 605 1529 1354 1822 2426 25 90 36 116 49 116 9 0 69 16 134 36 574
177 1227 302 1832 351 988 81 1724 275 2106 556 81 60 197 180 234 243 l27 45
46 -7 c83 -13 767 -8 897 6 803 87 1471 308 1954 644 93 66 219 168 264 216
l28 29 72 -19 c182 -48 401 -66 592 -49 662 59 1232 393 1628 952 42 60 46 70
37 95 l-10 29 20 -24 c30 -35 26 -81 -12 -131 -18 -24 -52 -68 -75 -99 -23
-31 -59 -83 -80 -116 -37 -59 -134 -158 -223 -229 -106 -84 -209 -159 -265
-193 -33 -20 -99 -60 -147 -89 -82 -50 -217 -112 -334 -155 -73 -26 -356 -77
-498 -90 -67 -6 -245 -9 -396 -7 -319 4 -270 17 -499 -132 -202 -132 -199
-130 -296 -180 -49 -26 -103 -54 -120 -63 -46 -25 -227 -104 -255 -112 -14 -4
-63 -24 -110 -45 -47 -20 -119 -45 -160 -55 -41 -10 -101 -28 -133 -42 -32
-13 -102 -33 -155 -44 -53 -11 -143 -33 -200 -49 -112 -32 -327 -65 -492 -75
-58 -3 -179 -16 -270 -27 -103 -13 -261 -23 -420 -27 -299 -8 -307 -10 -412
-112 -143 -140 -221 -195 -408 -291 -194 -99 -569 -228 -755 -258 -257 -42
-368 -62 -390 -70 -34 -13 -317 -67 -445 -85 -58 -8 -154 -17 -215 -20 -222
-13 -579 -56 -700 -85 -249 -60 -475 -111 -635 -144 -166 -35 -339 -75 -440
-103 -75 -20 -199 -92 -215 -124 -31 -58 -114 -260 -129 -311 -8 -29 -33 -92
-55 -139 -22 -47 -45 -106 -51 -130 -6 -24 -29 -73 -50 -109 -22 -36 -51 -91
-65 -124 -45 -102 -262 -435 -395 -606 -87 -112 -274 -315 -455 -495 -220
-219 -568 -475 -955 -703 -146 -85 -409 -232 -417 -232 -5 0 -33 -15 -63 -33
-69 -41 -225 -110 -333 -146 -154 -52 -172 -69 -217 -194 -19 -52 -50 -112
-75 -145 -46 -61 -170 -178 -325 -307 -140 -117 -218 -199 -286 -301 -88 -132
-97 -174 -92 -451 4 -217 4 -218 37 -308 39 -107 54 -156 76 -253 9 -39 32
-106 51 -147 22 -48 42 -114 54 -183 11 -59 35 -146 54 -193 27 -67 37 -111
46 -195 58 -595 61 -704 30 -1004 -11 -107 -20 -248 -20 -315 0 -178 -15 -283
-54 -385 -22 -56 -41 -130 -51 -202 -17 -114 -36 -185 -60 -222 -8 -12 -30
-76 -49 -143 -20 -68 -52 -149 -72 -183 -20 -34 -61 -115 -92 -179 -74 -154
-152 -281 -215 -352 -37 -40 -67 -90 -102 -166 l-49 -108 -7 -485 c-3 -267
-12 -562 -19 -657 -17 -210 -3 -479 35 -708 30 -173 36 -340 39 -975 1 -223 6
-616 10 -875 6 -332 5 -511 -3 -610 -27 -326 -59 -879 -68 -1162 l-6 -191 26
-26 c25 -25 31 -26 135 -26 l109 0 99 -49 c78 -39 128 -75 234 -166 74 -65
163 -137 198 -162 52 -37 356 -197 532 -279 193 -90 372 -201 439 -271 70 -74
91 -120 90 -203 0 -134 -45 -195 -202 -276 -115 -59 -228 -93 -397 -119 -137
-21 -1047 -21 -1240 0 -74 9 -270 20 -435 25 -330 11 -538 25 -600 41 -73 19
-238 92 -271 121 -45 39 -102 146 -120 227 -20 84 -20 402 0 582 16 135 57
297 116 454 43 115 56 195 69 445 12 208 1 402 -29 513 -35 134 -118 389 -145
452 -68 153 -220 610 -279 840 -68 265 -84 352 -121 640 -7 61 -24 162 -37
225 -22 108 -23 137 -23 480 0 238 5 394 13 450 12 83 81 334 141 515 44 131
138 441 155 506 28 111 38 206 34 340 -4 158 3 145 -145 309 -82 92 -94 110
-122 188 -16 48 -34 104 -40 124 -6 24 -6 253 0 634 8 508 8 621 -5 767 -9 95
-20 278 -26 407 -15 353 -28 497 -56 616 -14 60 -32 136 -40 169 -7 33 -18
121 -24 195 -15 190 -26 250 -65 351 -19 49 -44 141 -55 206 -14 77 -34 145
-57 196 -19 43 -43 110 -54 150 -20 72 -121 290 -187 402 -47 80 -153 241
-225 340 -78 107 -98 138 -141 218 -53 97 -91 137 -129 137 -17 0 -93 -25
-169 -55 -195 -78 -616 -221 -818 -278 -47 -13 -128 -36 -180 -51 -52 -15
-158 -47 -235 -71 -77 -24 -171 -51 -210 -60 -38 -8 -99 -25 -135 -37 -36 -12
-121 -36 -190 -54 -69 -17 -165 -43 -215 -58 -49 -14 -139 -36 -200 -50 -184
-40 -324 -76 -450 -116 -66 -20 -196 -52 -290 -70 -306 -58 -458 -91 -522
-115 -92 -35 -257 -68 -343 -69 -99 -1 -571 31 -635 43 -27 5 -63 14 -78 20
-16 6 -68 22 -116 36 -232 65 -483 239 -605 420 -67 100 -80 142 -106 335 -34
262 -34 254 -7 405 14 77 32 183 41 235 8 52 26 120 39 150 25 56 48 147 67
257 6 35 22 93 36 130 14 38 41 133 60 213 44 193 59 248 93 344 15 45 34 106
41 136 7 30 29 96 50 145 21 50 54 137 73 195 75 222 116 332 145 388 16 31
40 91 52 132 12 41 37 104 55 140 18 36 42 99 54 140 13 41 38 104 56 140 18
36 43 99 56 140 12 41 36 104 54 140 18 36 40 90 49 120 10 30 40 100 66 155
73 151 146 315 160 360 7 22 29 72 50 110 21 39 48 102 60 140 13 39 38 100
57 138 18 37 43 93 55 125 12 31 34 77 49 102 15 25 37 74 50 110 12 36 26 70
31 76 27 36 165 322 189 393 16 46 44 111 62 145 19 33 44 93 57 131 12 39 37
95 55 125 49 82 144 287 162 350 8 30 35 91 58 135 24 44 46 91 50 105 11 41
144 310 184 375 167 267 214 366 214 444 0 31 -6 81 -14 111 -8 33 -14 108
-14 190 l0 135 39 73 c42 78 43 79 151 147 50 31 106 54 195 79 69 20 162 47
206 60 268 80 514 16 677 -177 23 -27 67 -100 97 -161 62 -125 75 -136 193
-167 49 -13 134 -22 272 -29 110 -5 292 -19 405 -30 222 -22 406 -25 540 -10
122 13 358 28 718 45 491 23 559 21 786 -31 l108 -25 132 17 c92 11 159 27
226 51 71 26 122 36 205 44 61 5 142 14 180 20 78 13 314 93 396 135 30 15 95
40 144 55 50 15 117 36 150 48 137 46 328 96 450 117 109 20 166 23 353 24
283 0 371 -10 617 -71 243 -61 368 -118 580 -263 161 -111 208 -137 295 -166
55 -19 71 -20 130 -11 131 21 182 49 223 126 20 37 22 54 21 215 -1 160 -3
183 -27 263 -30 97 -85 246 -141 380 -21 48 -49 138 -64 200 -26 107 -27 123
-27 382 1 223 3 278 17 315 108 300 160 410 245 515 178 222 451 413 669 470
54 14 120 33 146 41 25 8 75 19 110 23 93 12 403 12 478 0z m-1060 -49 c0 -5
-11 -9 -25 -8 -14 1 -25 6 -25 10 0 4 11 8 25 8 14 0 25 -4 25 -10z m1965 -89
c5 -9 -31 -41 -45 -41 -3 0 -14 7 -25 16 -17 13 -18 16 -5 24 19 12 67 13 75
1z m199 -177 c9 -3 16 -12 16 -19 0 -21 -30 -26 -47 -9 -14 13 -14 17 -2 25
17 11 14 10 33 3z m56 -24 c0 -11 -4 -20 -10 -20 -5 0 -10 9 -10 20 0 11 5 20
10 20 6 0 10 -9 10 -20z m-2827 -1796 c1 -43 -2 -58 -15 -68 -10 -7 -18 -18
-18 -25 0 -6 -4 -11 -10 -11 -5 0 -10 -16 -10 -35 0 -19 -4 -35 -8 -35 -11 0
-24 232 -15 257 15 42 25 44 49 7 17 -25 25 -52 27 -90z m-608 -254 c10 -17
-53 -40 -109 -40 -76 0 -138 30 -88 43 34 9 191 7 197 -3z m-6632 -117 c333
-149 358 -983 49 -1648 -72 -155 -88 -213 -104 -367 -14 -135 -4 -288 37 -569
29 -195 32 -323 10 -375 -28 -68 -140 -85 -235 -36 -43 22 -60 38 -83 81 -28
49 -31 66 -43 220 -7 92 -26 254 -42 361 -19 122 -32 259 -36 365 -4 94 -11
224 -17 290 -43 528 -23 914 66 1260 55 214 144 427 188 445 36 16 146 1 210
-27z m6727 7 c0 -5 -2 -10 -4 -10 -3 0 -8 5 -11 10 -3 6 -1 10 4 10 6 0 11 -4
11 -10z m-7126 -62 c-17 -56 -100 -241 -141 -314 -57 -102 -131 -202 -174
-233 l-32 -24 -24 29 c-86 106 -103 276 -38 376 44 66 146 124 290 164 108 30
128 31 119 2z m6451 -73 c343 -60 528 -150 743 -364 229 -227 464 -599 626
-991 26 -63 52 -123 57 -133 6 -11 5 -25 -2 -40 -11 -19 -10 -20 2 -10 12 10
15 7 17 -20 1 -18 10 -38 19 -44 9 -7 13 -13 9 -13 -4 0 -4 -6 1 -12 9 -15 13
-38 7 -38 -3 0 -10 14 -16 31 -9 27 -12 29 -20 14 -7 -11 -7 -20 0 -27 6 -6 8
-16 6 -23 -3 -6 2 -18 11 -25 8 -7 15 -16 15 -21 0 -14 -40 29 -41 44 0 6 -4
1 -10 -11 -10 -27 -4 -42 17 -42 12 0 14 -142 14 -1046 0 -694 -3 -1043 -10
-1039 -13 8 -13 -1 0 -26 6 -11 7 -19 3 -18 -19 3 -34 -2 -29 -10 3 -5 -11
-20 -32 -34 -200 -132 -491 -194 -789 -168 -462 40 -919 219 -1232 482 -97 82
-174 177 -224 278 -41 82 -42 87 -42 185 0 90 4 112 38 209 20 60 61 155 89
210 46 91 97 169 344 534 87 129 159 274 190 383 24 82 26 104 22 203 -4 86
-11 129 -30 183 -23 62 -24 77 -15 113 15 55 -3 138 -45 210 -49 82 -197 226
-320 309 -249 169 -561 295 -893 362 -60 12 -111 23 -113 25 -7 6 202 119 316
170 267 121 553 199 837 229 83 9 393 -3 480 -19z m-4005 -134 c0 -14 -93 -21
-272 -21 -152 0 -189 5 -171 24 10 9 443 7 443 -3z m16704 -153 c-36 -64 -212
-248 -329 -346 -173 -145 -398 -277 -610 -357 -114 -43 -320 -92 -465 -111
-200 -25 -481 -11 -642 34 l-28 7 30 45 c43 63 64 140 51 184 -21 78 -73 122
-189 161 l-67 23 55 15 c124 36 319 63 525 72 465 21 878 83 1345 200 96 24
204 53 240 63 80 24 93 26 84 10z m-18099 -152 c212 -40 350 -50 665 -50 205
0 383 7 585 22 459 35 606 42 830 42 231 0 346 -10 445 -40 59 -18 140 -69
140 -90 0 -4 -35 -30 -77 -56 -217 -135 -511 -421 -651 -632 l-37 -55 -135 7
c-74 4 -189 14 -255 22 -531 64 -1465 221 -1671 279 l-51 15 -7 67 c-15 158
-36 432 -36 480 l0 51 63 -19 c34 -11 121 -30 192 -43z m-1191 -46 c-28 -164
-38 -306 -39 -547 l0 -251 -42 196 c-23 109 -54 264 -69 346 l-28 149 24 16
c40 26 116 99 141 136 13 19 24 33 25 32 1 -1 -4 -36 -12 -77z m4852 -18 c83
-74 224 -149 554 -297 402 -179 581 -286 713 -424 42 -44 77 -87 77 -94 0 -23
-105 -83 -201 -115 -213 -70 -526 -98 -969 -88 -157 3 -296 8 -310 10 -14 2
-74 7 -135 11 -146 8 -545 50 -720 76 -204 30 -438 68 -442 73 -3 2 11 7 29
11 18 4 71 25 118 47 113 54 226 165 288 284 49 95 107 265 117 343 l7 53 82
38 c201 94 328 120 567 117 l175 -2 50 -43z m315 -26 c184 -47 304 -92 504
-191 189 -94 323 -184 431 -291 59 -58 134 -161 134 -185 0 -3 -33 26 -73 65
-136 134 -356 263 -735 430 -159 70 -366 171 -402 195 -24 17 -4 13 141 -23z
m-1298 -168 c-3 -13 -14 -52 -26 -88 -99 -312 -267 -456 -576 -496 l-55 -7 50
64 c65 84 291 316 373 383 81 66 220 166 231 166 5 0 6 -10 3 -22z m-4003
-618 c92 -454 140 -747 155 -936 17 -216 21 -254 41 -357 17 -84 13 -152 -14
-252 -29 -109 -140 -192 -280 -211 l-48 -6 -88 248 c-174 491 -345 908 -391
958 -14 15 -35 26 -49 26 l-25 0 42 93 c54 120 346 708 449 906 l81 153 38
-188 c21 -104 61 -299 89 -434z m16878 602 c10 -7 11 -19 3 -54 -25 -111 67
-232 238 -310 l65 -30 -40 -34 c-524 -455 -1348 -741 -2324 -805 -177 -11
-616 -7 -667 7 -20 6 -21 10 -16 74 9 109 -15 169 -101 255 -79 78 -161 123
-309 171 l-87 28 37 24 c178 110 500 239 895 357 312 94 1130 235 1673 290
290 29 608 42 633 27z m269 -28 c135 -28 200 -77 189 -143 -6 -41 -71 -141
-91 -141 -27 0 -170 81 -209 118 -44 42 -69 92 -59 119 11 32 46 63 70 63 13
0 58 -7 100 -16z m-8634 -487 c220 -262 427 -470 645 -645 75 -60 93 -80 89
-96 -3 -12 -14 -61 -26 -111 -89 -383 33 -826 271 -984 34 -23 88 -49 120 -58
40 -11 58 -21 58 -32 0 -61 -126 -467 -209 -676 -404 -1010 -1091 -1684 -2310
-2267 -258 -123 -403 -172 -594 -198 l-78 -11 -37 29 c-204 161 -668 345
-1179 467 -71 17 -74 19 -160 109 -347 363 -591 861 -596 1216 -2 92 1 109 20
140 25 41 73 70 153 95 76 24 395 29 585 9 137 -14 505 -59 879 -109 185 -24
398 -48 546 -60 41 -4 91 -9 110 -12 64 -9 664 -12 745 -3 448 47 725 157 927
368 42 44 97 115 121 157 77 130 147 378 183 645 23 168 23 561 0 750 -50 410
-172 867 -341 1275 -84 204 -82 196 -49 155 16 -19 73 -88 127 -153z m3332 63
c10 -17 -42 -30 -116 -30 -71 0 -115 13 -104 31 8 12 212 12 220 -1z m-1245
-140 c210 -19 428 -65 693 -147 64 -20 117 -39 116 -42 0 -3 -62 -56 -137
-117 -225 -182 -544 -466 -749 -668 -202 -198 -316 -323 -423 -466 -79 -106
-174 -198 -241 -234 -28 -16 -52 -26 -55 -24 -2 2 1 20 6 39 30 101 72 348 77
444 12 227 -31 290 -327 479 -197 125 -181 103 -138 189 50 101 146 226 226
292 198 164 426 241 767 258 33 2 62 4 65 5 3 1 57 -3 120 -8z m2625 -135 c77
-8 152 -17 166 -20 l27 -6 -33 -55 c-43 -71 -50 -112 -30 -179 21 -75 83 -134
199 -190 88 -43 264 -95 374 -110 29 -4 52 -10 52 -14 0 -5 -14 -27 -31 -50
-243 -336 -1043 -602 -2089 -696 -96 -8 -229 -20 -295 -26 -292 -26 -697 -93
-1050 -174 -177 -40 -531 -133 -581 -152 -25 -9 3 23 228 265 l180 193 23 -21
c30 -29 81 -39 187 -40 66 0 90 4 102 16 28 28 16 60 -30 79 -25 10 -10 15
147 48 783 167 2312 383 2987 423 99 6 114 9 123 27 8 14 8 26 0 43 -10 23
-15 24 -104 24 -225 0 -1077 -100 -1832 -215 -631 -96 -1147 -191 -1380 -254
-60 -17 -111 -29 -112 -27 -6 6 364 363 484 468 349 305 555 440 792 518 163
53 528 117 756 133 153 10 612 6 740 -8z m460 -82 c168 -53 301 -138 339 -217
21 -46 22 -164 1 -172 -23 -9 -263 42 -358 76 -102 37 -185 92 -211 141 -28
51 -16 96 41 159 52 58 45 57 188 13z m-14292 -602 c36 -80 94 -225 130 -321
63 -169 207 -576 207 -585 0 -32 -130 91 -202 191 -71 100 -153 256 -212 404
-46 118 -96 292 -96 338 0 14 19 55 42 90 50 78 43 84 131 -117z m10124 -4
c87 -57 174 -118 194 -135 109 -95 111 -243 12 -666 l-25 -108 -42 6 c-156 25
-296 238 -336 514 -16 106 -8 325 14 420 10 39 19 72 22 72 2 0 75 -46 161
-103z m-10332 -224 c101 -300 253 -570 388 -689 35 -31 133 -90 164 -100 2 0
-18 -59 -43 -129 -112 -320 -212 -722 -259 -1050 -22 -157 -23 -163 -30 -240
-3 -38 -8 -88 -10 -110 -2 -22 -7 -110 -10 -195 -7 -218 -15 -376 -20 -440 -2
-30 -7 -86 -10 -125 -9 -109 -42 -283 -68 -360 -84 -246 -189 -351 -704 -705
l-92 -63 -43 35 c-206 167 -446 262 -633 252 -148 -8 -241 -45 -339 -134 -33
-31 -56 -46 -56 -37 0 26 98 362 161 549 281 843 854 2230 1349 3268 115 242
202 411 208 405 2 -2 23 -61 47 -132z m11065 -1117 c0 -11 -19 -15 -25 -6 -3
5 1 10 9 10 9 0 16 -2 16 -4z m-2050 -356 c0 -5 -5 -10 -11 -10 -5 0 -7 5 -4
10 3 6 8 10 11 10 2 0 4 -4 4 -10z m-4645 -230 c273 -29 503 -138 636 -304
212 -262 248 -688 103 -1211 l-25 -90 -257 -1 c-493 -2 -834 -79 -1083 -245
-319 -214 -423 -549 -307 -988 17 -64 31 -124 32 -134 1 -21 -20 -30 -294
-134 -679 -255 -1542 -524 -2445 -763 -318 -84 -788 -200 -793 -195 -2 2 6 21
16 42 63 122 73 293 29 474 -74 301 -267 633 -526 901 l-74 78 144 69 c193 93
299 134 659 256 334 113 500 180 714 287 458 229 806 485 1315 969 536 509
686 629 971 773 69 35 157 75 195 89 285 106 693 158 990 127z m960 -895 c92
-246 252 -512 436 -724 l73 -84 -40 7 c-175 30 -338 52 -494 67 -69 6 -126 12
-127 13 -1 1 8 35 21 76 60 189 100 459 94 639 -1 60 -2 109 -2 108 1 -1 19
-47 39 -102z m4203 -577 c4 -42 3 -42 -50 -27 -43 11 -48 31 -15 54 37 26 62
16 65 -27z m-110 -70 c7 -7 12 -24 12 -38 0 -25 -2 -26 -42 -21 -30 4 -44 11
-46 24 -8 38 47 64 76 35z m-116 -95 c10 -9 18 -27 18 -40 0 -20 -4 -23 -25
-18 -14 3 -36 7 -50 10 -44 9 -24 64 24 65 8 0 23 -7 33 -17z m-4294 -69 l30
-6 -34 -79 c-123 -289 -293 -544 -426 -641 -109 -80 -282 -179 -513 -293 -215
-106 -493 -230 -500 -223 -2 2 -14 39 -28 83 -86 278 -73 536 39 715 156 252
490 400 999 443 74 7 402 7 433 1z m377 -30 c149 -16 394 -55 502 -80 58 -13
77 -24 162 -95 335 -281 708 -435 1080 -445 142 -4 152 -7 178 -57 32 -64 -13
-206 -96 -299 -23 -26 -112 -100 -197 -164 -276 -207 -372 -323 -437 -529 -34
-108 -51 -264 -43 -390 14 -219 59 -412 177 -772 124 -379 175 -627 200 -969
58 -822 -189 -1808 -624 -2488 -57 -89 -60 -88 -70 30 -4 39 -20 123 -36 186
-56 221 -120 302 -218 276 -98 -26 -198 -253 -269 -608 -14 -69 -26 -129 -27
-134 -2 -4 -20 20 -42 55 -220 361 -505 514 -845 455 -143 -25 -160 -53 -84
-139 82 -94 152 -268 170 -426 4 -36 3 -61 -3 -61 -19 0 -100 59 -139 101 -47
52 -87 130 -109 214 -19 71 -21 207 -6 450 14 217 14 798 1 1070 -53 1121
-233 2010 -530 2619 -59 121 -100 191 -224 386 -93 146 -267 493 -253 506 1 1
90 42 197 89 248 111 506 241 685 347 113 67 157 100 231 173 137 136 273 357
384 621 l42 101 52 -4 c28 -2 114 -11 191 -19z m1165 -264 c96 -32 225 -79
285 -105 111 -47 275 -132 275 -141 0 -8 -123 6 -230 26 -127 24 -230 59 -370
126 -104 50 -301 171 -315 194 -8 13 152 -32 355 -100z m-7825 -321 c138 -15
300 -88 433 -197 l44 -35 -69 -44 c-37 -24 -140 -80 -227 -123 -294 -148 -497
-190 -616 -130 -90 46 -124 144 -79 233 60 119 160 227 253 272 53 26 150 46
176 37 8 -3 47 -8 85 -13z m727 -479 c44 -52 116 -148 160 -214 301 -450 362
-864 156 -1063 -40 -39 -50 -44 -163 -68 -228 -49 -403 -32 -590 59 -167 81
-290 196 -360 341 -84 171 -84 339 0 522 83 183 288 389 540 546 l90 56 43
-42 c24 -23 80 -85 124 -137z m-1297 -60 c69 -105 244 -138 446 -86 52 14 111
32 131 40 l37 16 -70 -88 c-208 -258 -257 -559 -132 -807 76 -150 204 -280
363 -369 36 -20 61 -36 55 -36 -28 0 -268 61 -325 83 -308 116 -502 315 -575
587 -22 85 -31 329 -16 430 16 98 53 260 60 260 3 0 15 -14 26 -30z m9266 -80
c13 -7 19 -21 19 -45 l0 -34 -37 13 c-42 15 -52 36 -28 60 19 19 21 19 46 6z
m-93 -136 c3 -29 1 -30 -27 -26 -17 2 -36 10 -42 18 -17 20 8 46 40 42 21 -2
27 -9 29 -34z m-110 -70 c18 -32 4 -50 -34 -46 -20 3 -38 11 -41 18 -14 36 56
61 75 28z m-110 -116 c3 -27 1 -28 -37 -28 -34 0 -41 3 -41 20 0 22 27 41 55
37 14 -1 21 -11 23 -29z m-61 -90 c-3 -8 -6 -5 -6 6 -1 11 2 17 5 13 3 -3 4
-12 1 -19z m-48 -344 c1 -138 -2 -339 -6 -446 l-6 -196 -23 10 c-13 6 -29 29
-40 56 -22 60 -25 230 -4 287 12 31 15 90 15 263 0 123 1 218 3 212 5 -14 22
-2 22 16 0 8 -10 14 -25 14 -21 0 -25 5 -25 29 0 16 7 34 15 41 8 7 15 20 15
30 0 9 10 21 23 27 21 10 22 8 29 -41 3 -28 6 -164 7 -302z m-121 -45 c1 -75
-2 -138 -8 -155 l-12 -29 -15 35 c-12 24 -17 67 -17 140 -1 116 5 143 31 138
16 -3 18 -18 21 -129z m-842 -3942 c47 -104 94 -351 94 -497 0 -57 -1 -59 -45
-98 -25 -22 -75 -55 -113 -75 -66 -35 -220 -92 -228 -84 -5 5 42 267 66 373
41 175 113 366 158 417 25 28 42 20 68 -36z m-994 -178 c169 -36 335 -163 467
-357 53 -79 131 -219 131 -235 0 -22 -155 -42 -320 -41 -132 1 -197 8 -301 35
l-35 9 -13 105 c-20 174 -70 323 -144 432 l-35 52 27 4 c56 9 172 6 223 -4z
m1102 -586 c16 -193 -11 -993 -34 -993 -4 0 -22 51 -40 113 -46 156 -162 497
-224 652 -28 72 -51 134 -51 138 0 4 36 20 80 36 92 32 189 79 225 110 14 11
28 20 31 21 3 0 9 -34 13 -77z m-993 -134 c81 -12 373 -7 448 7 l34 7 -6 -55
c-31 -265 -32 -694 -2 -938 43 -342 151 -632 265 -708 l35 -24 -50 7 c-79 12
-109 29 -157 91 -54 71 -81 123 -97 187 -21 87 -51 341 -51 436 0 51 -7 135
-16 187 -12 71 -15 143 -12 311 4 195 6 225 27 284 21 61 22 68 8 102 -24 55
-64 71 -157 62 -41 -4 -132 -10 -201 -14 -174 -8 -184 -18 -200 -194 -9 -103
-78 -455 -103 -522 -8 -22 -37 -94 -65 -160 -74 -173 -116 -345 -136 -545 -8
-91 -24 -199 -35 -240 -35 -134 -43 -271 -26 -484 8 -105 20 -258 26 -339 11
-150 37 -268 81 -367 11 -25 36 -110 56 -190 19 -80 50 -181 68 -226 19 -45
41 -110 50 -145 9 -35 38 -120 65 -189 27 -69 62 -165 78 -215 42 -125 105
-283 157 -392 30 -63 49 -119 60 -181 8 -48 27 -122 41 -163 37 -109 41 -191
14 -329 -29 -149 -49 -312 -43 -345 9 -44 37 -55 143 -55 52 0 140 -7 195 -15
151 -22 225 -20 265 8 51 34 68 64 96 172 25 92 27 119 30 340 5 307 -10 602
-36 736 -35 184 -43 304 -37 602 5 274 15 388 57 682 11 77 24 223 30 325 6
102 18 258 26 347 16 190 18 265 4 313 -15 53 -29 68 -95 95 -33 13 -51 25
-40 25 11 0 38 12 59 26 41 28 93 125 117 217 13 52 29 63 29 20 0 -16 5 -80
10 -143 35 -413 32 -1246 -10 -2515 -10 -324 -22 -696 -25 -825 -9 -318 -25
-402 -93 -473 -75 -80 -160 -91 -387 -51 -95 17 -202 29 -265 30 -58 1 -113 2
-122 3 -10 0 -25 16 -34 33 -16 30 -16 50 -4 232 18 282 17 494 -4 581 -22 94
-78 261 -206 620 -282 788 -396 1231 -440 1710 -15 161 -12 441 5 590 28 245
56 352 176 671 130 349 209 656 224 875 3 46 8 98 11 116 l5 32 39 -14 c21 -8
76 -19 121 -26z m633 -195 c30 -78 84 -235 120 -350 36 -115 92 -289 126 -386
l60 -177 -15 -103 c-37 -245 -96 -409 -141 -391 -38 14 -120 194 -160 351 -58
228 -68 345 -69 762 0 338 5 453 20 438 2 -2 29 -67 59 -144z m-374 32 c6 -8
10 -25 8 -38 -2 -19 -9 -23 -38 -22 -19 1 -56 7 -82 14 -34 8 -52 8 -67 1 -43
-23 -89 -3 -75 33 6 15 16 16 68 12 33 -4 77 -2 96 3 52 13 76 13 90 -3z
m-181 -153 c5 -4 16 -222 27 -548 l6 -170 -36 -1 -36 -1 0 54 c0 29 5 53 10
53 6 0 10 37 10 90 0 50 -4 90 -9 90 -5 0 -11 24 -14 53 -3 28 -12 75 -19 102
-18 69 -16 274 3 286 12 8 47 3 58 -8z m194 -168 c11 -257 2 -593 -18 -615 -8
-9 -15 -24 -15 -33 0 -9 -4 -17 -10 -17 -5 0 -10 8 -10 18 0 10 -6 24 -12 30
-10 10 -14 106 -16 393 -2 209 -1 387 2 395 4 10 16 14 38 12 l33 -3 8 -180z
m-323 -226 c0 -16 4 -28 9 -25 8 6 11 -28 27 -294 l6 -105 -25 0 c-23 0 -26 6
-41 75 -9 42 -16 86 -16 98 0 13 -7 31 -16 40 -13 12 -15 27 -9 76 3 34 13 68
20 76 7 8 16 32 20 53 9 45 25 49 25 6z m-94 -396 c-3 -42 -6 -102 -6 -135 0
-50 -3 -58 -19 -58 -36 0 -46 28 -46 131 1 105 15 139 58 139 19 0 20 -5 13
-77z m-76 -3828 c0 -30 -4 -55 -10 -55 -5 0 -10 25 -10 55 0 30 5 55 10 55 6
0 10 -25 10 -55z"/>
<path d="M16760 24280 c-245 -29 -472 -114 -635 -240 -79 -61 -214 -206 -268
-286 -160 -242 -247 -503 -247 -742 0 -193 40 -348 166 -653 203 -489 228
-686 128 -1010 -31 -101 -25 -122 30 -117 28 3 33 9 54 68 46 126 64 236 65
375 0 214 -26 317 -180 700 -57 142 -115 302 -129 355 -84 323 -26 631 181
950 278 431 783 599 1393 464 388 -86 773 -302 921 -517 79 -116 125 -252 107
-322 -17 -67 -133 -145 -216 -145 -17 0 -82 16 -144 35 -200 60 -560 126 -686
125 -25 -1 -67 -9 -95 -18 -74 -25 -84 -50 -94 -223 -6 -82 -16 -162 -25 -187
-39 -108 -110 -153 -279 -177 -163 -23 -212 -49 -243 -131 -27 -71 -2 -147
109 -335 24 -41 48 -86 52 -100 17 -57 58 -75 89 -40 26 29 15 61 -66 202
-149 259 -141 279 123 317 144 21 255 102 298 216 23 63 41 181 41 275 0 96 7
103 109 102 139 -1 502 -70 687 -132 58 -19 63 -23 93 -78 45 -85 98 -251 123
-387 29 -159 31 -445 5 -614 -85 -549 -292 -1021 -501 -1140 -39 -23 -64 -30
-106 -30 -202 0 -508 183 -892 535 -81 74 -155 135 -165 135 -25 0 -43 -19
-43 -46 0 -42 334 -343 540 -486 l88 -61 -35 -55 c-100 -156 -175 -397 -199
-635 -5 -57 -4 -71 11 -87 38 -42 85 -10 85 57 0 70 39 271 71 367 23 69 124
284 143 304 2 1 46 -18 99 -43 124 -59 242 -89 320 -82 238 22 459 352 606
909 68 256 109 566 97 738 -16 227 -59 427 -126 587 l-38 92 47 16 c112 37
189 112 211 206 33 135 -58 340 -224 504 -231 229 -586 398 -975 466 -131 22
-371 32 -481 19z"/>
<path d="M17937 23533 c-18 -17 -6 -53 23 -68 58 -30 130 -12 114 29 -13 33
-114 62 -137 39z"/>
<path d="M16206 22557 c-55 -14 -119 -80 -142 -148 -28 -79 -25 -224 5 -302
44 -113 190 -302 307 -399 147 -121 251 -122 284 -3 15 54 2 116 -36 176 -33
53 -67 69 -94 44 -27 -24 -25 -42 10 -94 30 -44 40 -104 20 -116 -20 -12 -105
48 -190 134 -95 96 -189 230 -215 306 -24 74 -21 177 7 233 47 93 105 103 183
31 52 -48 84 -119 92 -205 6 -69 24 -91 63 -79 66 21 22 234 -70 339 -35 40
-106 80 -155 88 -16 3 -48 1 -69 -5z"/>
<path d="M11866 3568 c-34 -54 -100 -324 -128 -523 -19 -141 -17 -438 4 -505
51 -163 155 -231 408 -265 58 -8 229 -24 380 -35 151 -12 376 -32 500 -45 407
-43 511 -50 830 -50 312 0 405 7 580 41 272 54 429 163 447 311 11 95 -42 173
-186 271 -66 46 -544 292 -566 292 -2 0 -59 30 -127 66 -185 100 -291 176
-414 296 -146 141 -190 163 -324 162 -100 -2 -102 -2 -360 -83 -206 -64 -307
-83 -440 -83 -167 1 -324 44 -474 132 -78 46 -109 50 -130 18z m1545 -110 c24
-15 80 -63 124 -108 144 -147 258 -221 597 -390 146 -72 232 -120 222 -124 -8
-3 -13 -2 -10 2 2 4 -4 8 -15 8 -19 0 -20 -1 -2 -14 10 -7 17 -17 16 -22 -1
-4 8 -7 20 -6 22 3 22 2 22 -165 0 -167 0 -168 -21 -165 -24 5 -27 -20 -5 -33
28 -18 -32 -22 -259 -17 -330 6 -680 50 -1195 150 -273 53 -744 128 -940 150
-27 3 -72 9 -99 12 l-49 6 6 132 c3 72 13 181 22 241 19 121 69 333 84 348 5
5 38 -6 81 -28 167 -84 343 -122 519 -112 122 7 215 28 431 97 209 67 222 69
321 67 72 -3 93 -7 130 -29z m969 -632 c0 -3 -4 -8 -10 -11 -5 -3 -10 -1 -10
4 0 6 5 11 10 11 6 0 10 -2 10 -4z m-2200 -232 c276 -40 615 -96 891 -148 659
-125 1210 -159 1459 -90 114 32 187 113 199 221 l6 58 28 -40 c76 -110 -10
-217 -228 -284 -79 -25 -209 -49 -304 -57 -36 -3 -76 -7 -88 -10 -31 -6 -524
-6 -565 0 -18 3 -80 8 -138 11 -120 7 -140 9 -385 35 -99 11 -341 34 -537 50
-386 32 -484 47 -566 86 -75 36 -122 108 -122 186 l0 30 53 -7 c28 -4 162 -22
297 -41z m2232 -149 c10 6 10 5 1 -5 -10 -11 -16 -11 -31 3 -10 9 -22 14 -27
10 -4 -5 -5 -2 -1 5 6 11 12 10 26 -3 11 -10 24 -14 32 -10z"/>
<path d="M26650 21290 c-25 -4 -97 -15 -160 -24 -63 -10 -171 -33 -240 -51
-69 -19 -174 -39 -235 -45 -60 -6 -162 -18 -225 -26 -83 -11 -143 -14 -215 -8
-124 9 -116 9 -200 0 -89 -9 -188 -32 -232 -53 -51 -24 -58 -52 -28 -123 14
-33 25 -65 25 -73 0 -7 17 -49 39 -93 30 -62 45 -83 67 -92 54 -20 178 -21
369 -1 296 30 340 37 404 64 34 14 97 34 141 44 84 19 94 25 371 205 31 20 67
52 80 71 13 19 45 51 71 70 42 32 78 85 78 114 0 11 -43 33 -58 30 -4 -1 -27
-5 -52 -9z m-510 -380 c0 -5 -8 -10 -17 -10 -15 0 -16 2 -3 10 19 12 20 12 20
0z"/>
<path d="M10490 21210 c-107 -4 -249 -14 -315 -23 -389 -53 -562 -63 -740 -45
-191 20 -479 18 -520 -4 -55 -30 -70 -55 -69 -117 3 -159 24 -191 142 -217 43
-9 97 -26 122 -37 73 -31 97 -36 263 -52 98 -9 192 -25 245 -40 99 -29 186
-41 407 -55 119 -8 189 -18 274 -40 285 -74 478 -39 573 103 48 70 108 128
187 181 246 162 291 198 311 247 17 40 7 57 -47 82 -46 21 -61 22 -343 23
-162 1 -383 -2 -490 -6z m-225 -470 c30 -11 -39 -23 -145 -24 -96 -1 -153 10
-129 25 17 11 246 11 274 -1z"/>
<path d="M7394 20473 c-61 -65 -94 -142 -94 -218 0 -47 -6 -77 -21 -107 -17
-33 -20 -52 -15 -92 20 -168 28 -203 66 -285 35 -77 40 -99 48 -197 7 -94 13
-119 36 -158 15 -25 40 -83 56 -128 35 -97 59 -120 90 -83 17 21 40 201 40
320 1 126 -24 225 -86 354 l-47 96 28 157 c26 145 28 164 17 235 -13 83 -38
136 -65 141 -11 2 -32 -12 -53 -35z"/>
<path d="M17870 20313 c-43 -7 -238 -72 -279 -92 -72 -37 -165 -120 -211 -189
-25 -37 -58 -85 -75 -106 -35 -46 -40 -103 -11 -135 10 -11 51 -39 91 -60 72
-40 160 -123 211 -201 14 -21 31 -70 39 -115 17 -85 27 -105 57 -105 38 0 79
31 268 198 58 52 133 114 168 138 35 24 111 86 170 137 104 91 208 164 294
208 24 12 75 42 115 68 101 65 127 116 81 158 -30 26 -48 32 -137 44 -42 5
-121 20 -176 34 -93 23 -117 24 -340 23 -132 0 -251 -3 -265 -5z"/>
<path d="M20325 20210 c-175 -11 -472 -46 -540 -63 -61 -16 -171 -39 -369 -77
-60 -12 -123 -28 -140 -37 -68 -35 -182 -119 -307 -226 -72 -61 -162 -138
-200 -170 -115 -96 -125 -145 -37 -172 68 -20 116 -19 213 4 116 28 139 30
371 41 l212 10 168 50 c93 28 207 58 254 66 47 9 139 30 205 47 l120 32 305 0
c290 0 307 1 345 21 24 12 41 29 43 42 2 11 -13 52 -32 90 -20 39 -45 112 -56
164 -22 101 -39 133 -91 163 -30 17 -53 20 -189 21 -85 1 -209 -2 -275 -6z"/>
<path d="M20805 19463 c-125 -11 -352 -63 -612 -139 -92 -27 -146 -65 -141
-98 5 -38 89 -71 193 -74 110 -4 152 13 170 68 14 43 37 49 146 36 83 -10 112
-5 239 43 30 11 81 25 113 31 37 8 72 23 99 43 94 72 74 98 -71 95 -53 -1
-114 -3 -136 -5z"/>
<path d="M19449 19221 l-23 -18 27 -17 c60 -40 157 -26 157 23 0 35 -121 44
-161 12z"/>
<path d="M5982 14828 c-70 -36 -215 -151 -249 -199 -18 -24 -48 -64 -68 -88
-45 -54 -118 -198 -141 -276 -22 -78 -15 -244 14 -307 11 -24 66 -90 123 -149
80 -82 121 -116 179 -147 131 -70 280 -89 401 -53 35 11 84 22 109 26 79 12
127 42 180 112 27 36 52 81 56 99 8 43 -13 254 -31 303 -18 52 -112 226 -160
297 -23 33 -62 98 -86 144 -69 131 -201 260 -266 260 -10 0 -37 -10 -61 -22z"/>
<path d="M5125 14560 c-11 -4 -42 -16 -69 -25 -42 -15 -51 -24 -68 -63 -33
-73 -21 -172 43 -362 62 -186 64 -191 127 -258 44 -47 54 -53 83 -50 42 4 49
30 21 85 -11 21 -25 70 -31 108 -6 39 -18 92 -26 119 -24 78 -13 231 21 297 8
16 17 48 20 73 5 36 3 47 -15 65 -22 22 -69 27 -106 11z"/>
<path d="M13740 13480 c0 -5 5 -10 10 -10 6 0 10 5 10 10 0 6 -4 10 -10 10 -5
0 -10 -4 -10 -10z"/>
<path d="M12772 9845 c-11 -14 -25 -55 -32 -92 -20 -116 -50 -228 -70 -268
-27 -53 -26 -83 3 -96 57 -26 150 64 161 155 3 22 10 75 15 117 10 71 2 172
-14 199 -11 18 -43 10 -63 -15z"/>
<path d="M11820 9717 c-42 -22 -35 -52 68 -284 30 -69 42 -85 71 -99 30 -15
42 -15 105 -3 51 10 87 11 125 5 49 -9 56 -7 72 12 23 29 14 57 -30 90 -20 15
-89 77 -154 139 -108 102 -180 153 -218 153 -8 0 -25 -6 -39 -13z"/>
<path d="M12778 9125 c-38 -21 -53 -72 -35 -123 29 -83 94 -172 130 -178 25
-3 39 46 45 158 6 134 -5 158 -71 158 -23 -1 -54 -7 -69 -15z"/>
<path d="M12606 8422 c-16 -27 -28 -159 -24 -275 5 -139 3 -130 85 -347 33
-87 64 -114 106 -91 44 24 62 82 61 201 0 86 -5 118 -26 180 -57 163 -111 290
-133 314 -23 25 -59 34 -69 18z"/>
<path d="M15686 23981 c-3 -5 1 -11 9 -15 15 -6 29 7 18 18 -9 9 -21 8 -27 -3z"/>
<path d="M18789 23622 c-25 -3 -27 -7 -33 -70 -8 -86 -8 -328 0 -414 6 -63 8
-66 34 -70 27 -4 27 -4 34 70 7 93 6 358 -3 432 -6 52 -7 55 -32 52z"/>
<path d="M15266 23441 c-3 -47 -5 -299 -4 -559 0 -399 2 -472 14 -468 11 4 14
-6 14 -44 0 -38 4 -50 15 -50 11 0 15 12 15 51 0 31 4 48 10 44 11 -7 15 939
4 1043 -6 56 -8 60 -34 64 l-28 4 -6 -85z"/>
<path d="M15188 23036 c-7 -136 -1 -256 13 -256 10 0 10 235 0 325 -6 54 -7
47 -13 -69z"/>
<path d="M18648 23085 c-9 -121 -11 -1327 -3 -1430 7 -90 7 -90 35 -91 l28 -1
6 91 c11 158 0 1400 -13 1404 -6 2 -11 21 -11 43 0 27 -4 39 -14 39 -8 0 -16
6 -19 13 -2 6 -6 -24 -9 -68z"/>
<path d="M18581 22984 c0 -11 3 -14 6 -6 3 7 2 16 -1 19 -3 4 -6 -2 -5 -13z"/>
<path d="M18777 22435 c-4 -38 -7 -125 -7 -192 0 -103 2 -123 15 -123 13 0 15
22 14 138 -1 75 -4 162 -8 192 l-6 55 -8 -70z"/>
<path d="M7842 22317 c-29 -7 -54 -16 -55 -22 -4 -19 108 -26 340 -23 156 2
236 7 243 14 13 13 5 21 -32 31 -44 12 -441 12 -496 0z"/>
<path d="M13585 22220 c-22 -5 -47 -7 -55 -5 -8 3 -21 1 -29 -4 -11 -7 -11
-10 0 -17 16 -10 754 -19 817 -9 46 7 54 18 20 31 -32 10 -704 14 -753 4z"/>
<path d="M26799 21856 c-2 -2 -21 -6 -43 -9 -52 -7 -67 -24 -30 -34 47 -13
561 -10 575 4 8 8 5 14 -12 25 -18 10 -84 14 -255 16 -127 1 -232 0 -235 -2z"/>
<path d="M27443 21666 c-8 -10 -10 -63 -6 -199 l6 -185 24 9 c14 5 23 5 23 -1
0 -6 5 -10 10 -10 6 0 10 39 10 96 0 53 -4 93 -9 90 -11 -7 -21 27 -21 72 0
20 4 31 10 27 6 -4 10 15 10 48 0 41 -4 56 -16 61 -22 8 -27 7 -41 -8z"/>
<path d="M25470 21640 c0 -5 9 -10 20 -10 11 0 20 5 20 10 0 6 -9 10 -20 10
-11 0 -20 -4 -20 -10z"/>
<path d="M27560 21515 c0 -54 0 -55 30 -55 30 0 30 1 30 55 0 54 0 55 -30 55
-30 0 -30 -1 -30 -55z"/>
<path d="M27260 21199 c0 -11 -4 -18 -9 -15 -5 3 -14 -8 -21 -24 -7 -17 -16
-30 -21 -30 -14 0 -11 -20 6 -36 8 -9 15 -30 15 -48 0 -25 4 -32 20 -33 16 -1
20 4 20 33 0 19 5 34 10 34 6 0 10 27 10 60 0 41 4 60 13 60 8 0 7 4 -3 10
-24 16 -40 11 -40 -11z"/>
<path d="M7124 21186 c-8 -21 3 -36 27 -36 25 0 25 26 -1 40 -16 9 -22 8 -26
-4z"/>
<path d="M26995 20962 c-10 -10 -5 -48 10 -68 8 -10 15 -33 15 -50 0 -20 5
-31 15 -31 10 0 15 11 15 32 0 24 6 35 25 43 24 11 34 45 17 56 -16 10 -91 24
-97 18z"/>
<path d="M26883 20859 c-17 -17 4 -68 32 -75 32 -8 79 16 83 42 3 18 -5 23
-42 33 -55 14 -59 14 -73 0z"/>
<path d="M20300 20801 l-35 -7 49 -7 c81 -12 126 -9 126 8 0 12 -12 15 -52 14
-29 -1 -69 -5 -88 -8z"/>
<path d="M20560 20795 c0 -12 13 -15 60 -15 47 0 60 3 60 15 0 12 -13 15 -60
15 -47 0 -60 -3 -60 -15z"/>
<path d="M26769 20763 c-14 -17 2 -60 26 -69 28 -11 84 6 90 27 9 28 -2 37
-58 48 -36 6 -49 5 -58 -6z"/>
<path d="M26620 20657 c0 -54 139 -77 156 -25 9 29 -10 38 -88 38 -50 0 -68
-3 -68 -13z"/>
<path d="M6791 20514 c0 -11 3 -14 6 -6 3 7 2 16 -1 19 -3 4 -6 -2 -5 -13z"/>
<path d="M25290 20176 c0 -18 50 -20 150 -6 l55 7 -80 2 c-44 1 -90 4 -102 7
-17 5 -23 2 -23 -10z"/>
<path d="M6386 19583 c-11 -11 -6 -23 9 -23 8 0 15 4 15 9 0 13 -16 22 -24 14z"/>
<path d="M23028 19520 c38 -32 123 -43 296 -38 152 4 206 14 206 37 0 16 -65
21 -294 21 -228 -1 -231 -1 -208 -20z"/>
<path d="M6150 19448 c0 -35 -3 -47 -12 -42 -16 10 -1 -174 16 -191 7 -8 22
-15 32 -17 16 -3 19 4 22 52 2 30 1 96 -3 146 -6 87 -8 92 -31 97 -23 4 -24 2
-24 -45z"/>
<path d="M22063 19343 c-29 -2 -53 -8 -53 -14 0 -10 59 -13 185 -10 95 2 130
21 38 21 -33 0 -73 2 -89 3 -16 2 -53 2 -81 0z"/>
<path d="M22320 19330 c0 -5 7 -10 15 -10 8 0 15 5 15 10 0 6 -7 10 -15 10 -8
0 -15 -4 -15 -10z"/>
<path d="M6240 19301 c0 -12 6 -21 15 -21 8 0 15 4 15 9 0 5 -7 14 -15 21 -13
10 -15 9 -15 -9z"/>
<path d="M21775 19241 c-3 -5 -1 -12 5 -16 5 -3 10 1 10 9 0 18 -6 21 -15 7z"/>
<path d="M6161 19117 c-12 -15 -5 -27 16 -27 7 0 13 9 13 20 0 23 -13 26 -29
7z"/>
<path d="M21122 18964 c5 -30 71 -47 156 -41 77 6 112 21 92 41 -6 6 -63 13
-131 15 -113 3 -121 2 -117 -15z"/>
<path d="M6020 18830 c0 -11 7 -20 15 -20 8 0 15 6 15 14 0 8 -7 16 -15 20
-10 4 -15 -1 -15 -14z"/>
<path d="M20460 18781 c0 -9 27 -21 94 -41 50 -16 331 -9 364 8 30 17 28 28
-9 36 -49 9 -449 7 -449 -3z"/>
<path d="M5609 18218 c0 -29 -3 -47 -6 -40 -14 34 -23 3 -23 -79 0 -67 4 -94
15 -105 9 -9 15 -34 15 -58 0 -41 22 -78 36 -63 11 10 17 220 9 310 -6 76 -9
87 -26 87 -16 0 -19 -8 -20 -52z"/>
<path d="M5694 18085 c-4 -10 -1 -21 7 -26 20 -12 34 -5 34 17 0 24 -33 31
-41 9z"/>
<path d="M17386 17652 c-2 -4 -1 -14 5 -22 7 -12 9 -10 9 8 0 23 -5 28 -14 14z"/>
<path d="M16883 16843 c-15 -5 -18 -73 -3 -73 6 0 10 -18 10 -41 0 -24 4 -38
10 -34 6 3 10 -2 11 -12 0 -10 3 -13 5 -6 3 7 12 9 20 6 20 -7 19 114 -1 141
-8 11 -15 16 -15 12 0 -5 -6 -4 -12 1 -7 6 -19 8 -25 6z"/>
<path d="M4950 16632 c0 -29 -4 -51 -9 -48 -12 8 -23 -124 -16 -192 8 -76 15
-106 22 -99 3 4 14 2 23 -3 14 -8 19 -5 24 13 8 29 8 215 0 308 -6 64 -9 75
-25 75 -16 0 -19 -8 -19 -54z"/>
<path d="M16683 16548 c-43 -11 -50 -25 -24 -49 14 -14 21 -32 21 -59 0 -30 3
-38 14 -34 9 4 17 30 21 75 4 39 6 71 4 73 -2 2 -18 -1 -36 -6z"/>
<path d="M5030 16390 c0 -5 5 -10 10 -10 6 0 10 5 10 10 0 6 -4 10 -10 10 -5
0 -10 -4 -10 -10z"/>
<path d="M4816 16242 c-9 -102 -7 -212 4 -212 6 0 10 -18 10 -41 0 -24 4 -38
10 -34 6 3 10 -3 10 -14 0 -25 25 -28 34 -5 10 26 7 374 -3 374 -5 0 -11 -6
-14 -12 -3 -10 -9 -10 -24 -1 -19 11 -21 8 -27 -55z"/>
<path d="M4947 16133 c-13 -12 -7 -43 8 -43 9 0 15 9 15 25 0 24 -10 32 -23
18z"/>
<path d="M4720 15984 c0 -24 -4 -44 -10 -44 -6 0 -10 -53 -10 -140 0 -87 4
-140 10 -140 6 0 10 -21 10 -46 0 -27 4 -43 10 -39 6 3 10 -1 10 -9 0 -21 26
-21 34 0 8 21 8 314 0 392 -6 53 -9 61 -30 65 -22 4 -24 1 -24 -39z"/>
<path d="M4610 15608 c0 -27 -4 -48 -10 -48 -6 0 -10 -69 -10 -186 0 -105 4
-183 9 -180 10 6 21 -26 21 -62 0 -13 4 -20 10 -17 6 3 10 -3 10 -14 0 -25 15
-28 24 -5 8 21 8 390 0 485 -6 69 -8 74 -30 74 -22 0 -24 -4 -24 -47z"/>
<path d="M4725 15271 c-3 -5 -1 -12 5 -16 5 -3 10 1 10 9 0 18 -6 21 -15 7z"/>
<path d="M4486 15112 c-8 -102 -6 -276 4 -337 5 -27 12 -69 16 -92 3 -24 11
-43 15 -43 5 0 9 -7 9 -15 0 -20 16 -19 24 1 3 9 6 138 6 287 l0 272 -34 1
-33 0 -7 -74z"/>
<path d="M14555 15020 c3 -5 8 -10 11 -10 2 0 4 5 4 10 0 6 -5 10 -11 10 -5 0
-7 -4 -4 -10z"/>
<path d="M4400 14759 c0 -27 -4 -48 -9 -45 -15 9 -21 -120 -21 -436 0 -267 2
-308 15 -308 11 0 15 -12 15 -48 0 -40 3 -48 19 -48 26 0 31 76 31 475 0 391
-5 461 -31 461 -16 0 -19 -8 -19 -51z"/>
<path d="M4615 14801 c-3 -5 -1 -12 5 -16 5 -3 10 1 10 9 0 18 -6 21 -15 7z"/>
<path d="M4506 13959 c-3 -17 -6 -42 -6 -55 0 -13 -4 -24 -10 -24 -17 0 -12
-107 5 -114 9 -3 15 -18 15 -36 0 -23 5 -30 19 -30 15 0 19 11 25 61 8 78 8
192 0 213 -11 28 -41 19 -48 -15z"/>
<path d="M7670 13329 c0 -5 5 -7 10 -4 6 3 10 8 10 11 0 2 -4 4 -10 4 -5 0
-10 -5 -10 -11z"/>
<path d="M5675 13063 c-48 -12 -29 -30 35 -32 537 -21 620 -23 688 -13 73 10
103 24 88 39 -8 9 -778 14 -811 6z"/>
<path d="M5600 13050 c0 -5 5 -10 10 -10 6 0 10 5 10 10 0 6 -4 10 -10 10 -5
0 -10 -4 -10 -10z"/>
<path d="M14144 12553 c-11 -140 -11 -1041 0 -1295 7 -179 10 -198 26 -198 16
0 18 17 24 173 23 568 23 1054 0 1337 -6 77 -9 90 -24 90 -16 0 -19 -14 -26
-107z"/>
<path d="M14027 11453 c-9 -88 -9 -538 0 -720 l6 -143 28 0 27 0 7 103 c10
162 10 277 -3 507 -12 220 -18 264 -33 254 -5 -3 -9 11 -9 30 0 62 -17 39 -23
-31z"/>
<path d="M13916 10693 c-10 -25 -7 -223 6 -350 10 -107 14 -123 30 -123 15 0
18 8 18 45 0 25 5 45 10 45 13 0 13 250 0 299 -5 20 -11 48 -14 62 -6 30 -41
45 -50 22z"/>
<path d="M13642 9961 c4 -13 18 -16 19 -4 0 4 -5 9 -11 12 -7 2 -11 -2 -8 -8z"/>
<path d="M11190 9301 c0 -18 18 -21 30 -6 10 13 9 15 -9 15 -11 0 -21 -4 -21
-9z"/>
<path d="M11340 8521 c0 -6 5 -13 10 -16 6 -3 10 1 10 9 0 9 -4 16 -10 16 -5
0 -10 -4 -10 -9z"/>
<path d="M11086 8270 c-9 -100 -7 -210 4 -210 6 0 10 -15 10 -32 0 -51 11 -78
30 -78 10 0 21 7 24 16 8 20 6 255 -2 319 -6 45 -9 50 -33 50 -25 1 -27 -2
-33 -65z"/>
<path d="M11232 8140 c0 -14 2 -19 5 -12 2 6 2 18 0 25 -3 6 -5 1 -5 -13z"/>
<path d="M10990 8013 c0 -25 -5 -43 -11 -43 -8 0 -9 -90 -4 -327 9 -401 9
-601 4 -1078 -2 -203 0 -414 4 -467 8 -92 10 -98 31 -98 22 0 23 3 29 143 9
183 9 1761 1 1849 -6 63 -8 67 -30 66 -21 -2 -24 -7 -24 -45z"/>
<path d="M10886 7333 c-14 -170 3 -583 24 -583 4 0 10 64 13 143 14 286 5 517
-18 517 -8 0 -14 -27 -19 -77z"/>
<path d="M13495 5535 c-8 -105 2 -285 16 -285 5 0 9 86 9 190 0 105 -4 190 -9
190 -5 0 -12 -43 -16 -95z"/>
<path d="M11350 5316 c0 -27 -7 -44 -22 -58 -20 -17 -22 -28 -22 -148 0 -71 2
-131 4 -134 3 -2 17 -2 32 1 25 5 27 8 33 90 8 92 -1 248 -15 273 -7 11 -9 4
-10 -24z"/>
<path d="M11650 3645 c0 -8 4 -15 10 -15 5 0 7 7 4 15 -4 8 -8 15 -10 15 -2 0
-4 -7 -4 -15z"/>
<path d="M11415 3463 c-4 -52 -4 -219 0 -371 5 -152 7 -362 6 -467 -2 -104 0
-231 4 -281 6 -88 7 -91 29 -87 20 4 24 13 30 65 8 80 6 1118 -2 1183 -6 45
-9 50 -34 51 -26 1 -26 1 -33 -93z"/>
<path d="M11332 2878 c-7 -68 -12 -174 -12 -235 l0 -113 25 0 c25 0 25 0 25
93 0 144 -12 377 -20 377 -4 0 -12 -55 -18 -122z"/>
<path d="M15134 2758 c-10 -43 -11 -442 -1 -490 5 -23 14 -38 22 -38 8 0 15 5
15 11 0 6 6 9 13 6 9 -3 12 48 12 238 0 134 -3 241 -6 239 -9 -5 -19 21 -19
47 0 32 -27 21 -36 -13z"/>
<path d="M15247 2623 c-9 -8 -9 -108 -1 -206 6 -64 10 -77 24 -77 14 0 18 13
24 73 4 40 3 106 0 145 -6 58 -10 72 -24 72 -9 0 -20 -3 -23 -7z"/>
<path d="M14540 2000 c0 -39 165 -65 255 -40 48 14 59 34 23 44 -39 10 -278 7
-278 -4z"/>
<path d="M12230 1913 c-101 -4 -137 -10 -123 -24 17 -17 207 -28 533 -29 1671
-7 1886 -6 1934 4 63 14 69 38 11 48 -37 6 -2161 7 -2355 1z"/>
<path d="M12060 1890 c0 -5 5 -10 10 -10 6 0 10 5 10 10 0 6 -4 10 -10 10 -5
0 -10 -4 -10 -10z"/>
</g>
</svg>
